<svg xmlns="http://www.w3.org/2000/svg" viewBox="0 0 488.28 396.21"><defs><style>.cls-1{fill:#ededed;}.cls-1,.cls-2,.cls-3,.cls-4,.cls-5{fill-rule:evenodd;}.cls-2,.cls-6{fill:#706f6f;}.cls-3{fill:#fff;}.cls-4,.cls-8{fill:#af1923;}.cls-5,.cls-7{fill:#1d1d1b;}</style></defs><g id="Ebene_2" data-name="Ebene 2"><g id="Ebene_1-2" data-name="Ebene 1"><path class="cls-1" d="M248.89,381.5c130,0,235.41-73.56,235.41-164.26S378.88,53,248.89,53,13.49,126.54,13.49,217.24,118.9,381.5,248.89,381.5Z"/><path class="cls-2" d="M42.36,136.8C79.84,82.92,160.6,45.62,254.16,45.62c129.28,0,234.12,71.2,234.12,159,0,29.29-11.68,56.73-32,80.3,14.31-20.57,22.32-43.55,22.32-67.8,0-87.79-104.84-159-234.12-159C158.3,58.12,83,89.74,42.36,136.8Z"/><path class="cls-2" d="M251,380.73c-1.68,0-3.38,0-5.07,0-129.28,0-234.12-71.19-234.12-159a113.44,113.44,0,0,1,11.94-50.24,128.57,128.57,0,0,0-4.28,32.81C19.5,298,121.75,374.61,251,380.73Z"/><path class="cls-3" d="M34.09,227.12c0-5.93,5.67-9.63,11.13-9.63a9.57,9.57,0,0,1,9.62,9.88v.25A9,9,0,0,1,46,236.5h-1.5c-4.69,0-10.38-3.83-10.38-8.88v-.5Z"/><path class="cls-3" d="M447.79,227.12v.5c0,5-5.69,8.88-10.38,8.88h-1.5a9,9,0,0,1-8.88-8.88v-.25a9.58,9.58,0,0,1,9.63-9.88c5.46,0,11.13,3.7,11.13,9.63Z"/><path class="cls-3" d="M300.61,228.82a8,8,0,0,1,3.06.93,8.11,8.11,0,0,1,2.73-1.39l-.39-.25a7.64,7.64,0,0,1-2.44.36h-.25a7.45,7.45,0,0,1-2.5-.42l-.12.46-.09.31Z"/><path class="cls-3" d="M400,135.73l-1.91-.21,10.67-7.81A8.29,8.29,0,0,1,412,125.1l-6.9.92-4.21,4.2-.84.45a5.42,5.42,0,0,0-2.25,1.93c-.67,1-1.27,1.8-1.94,2.63a12.64,12.64,0,0,0,2.46.5Z"/><polygon class="cls-3" points="401.37 136.48 402.36 136.48 402.69 136.03 400.29 135.76 401.37 136.48 401.37 136.48"/><path class="cls-3" d="M381.92,163.84l-1.16-.09-1.67-2.4a7.76,7.76,0,0,1-1.55-3.07,9.55,9.55,0,0,1-2.39-2l2.17,6.52H375.1v1.11l-9-1.11h-2.3l-.52-.34-3.51-.44.12-2.09a10.35,10.35,0,0,1-3.44-6.63l-.47.21c-1.46.68-3.35,1.28-4.7,2.06a73.79,73.79,0,0,1-10.11,4.85c5.25.27,11.78,1.37,16.08,3.26s7.18,3.94,12,3.94h2a14.51,14.51,0,0,0,4.81-1.3c1.95-.8,3.88-1.71,5.87-2.44Z"/><path class="cls-3" d="M397.66,164.75c2-.74,3.75-1.48,4.68-1.94,1.51-.75,6.12-3,7.4-4.56v-.07a15.48,15.48,0,0,1-.48-2.51l0-.21c-.58-.05-1.18-.13-1.78-.24l.88,3.78h-9.67c-.72.44-1.56,1.09-2.13,1.5-1,.69-2,1.43-3.05,2.07h4.17v2.18Z"/><path class="cls-3" d="M364.84,188.56l-.33.08a16.54,16.54,0,0,1-2.89.44l-1.47.26-1.25-.14a7.19,7.19,0,0,1-3.85,4.53v3.33l-4.91,1.15a13,13,0,0,1-4.71.92h-3.26a16.48,16.48,0,0,1-3.29-.35c-.59-.12-1.26-.32-2-.54l3.07,4.2h6.19c2.68,0,5.39-.68,8.05-1a29.88,29.88,0,0,0,7.1-2.07l-.52-6.24h4.64a8.91,8.91,0,0,1-.57-3l0-1.58Z"/><polygon class="cls-3" points="310.69 169.35 310.49 169.07 310.31 169.14 310.69 169.35 310.69 169.35"/><path class="cls-3" d="M292.08,186.6,289,191.16h4V191l3.76-4.6h2a16.07,16.07,0,0,1,1.76-3.19l1.89-2.83h3.39a17,17,0,0,1,2.81-.48l1-.18,4.11.45-.27-1.16a8.76,8.76,0,0,1-.44-2.79v-1.76a12.28,12.28,0,0,1,.13-1.74l-1.5-2.07-8.2,7.21-.8.8-1.51,1-.78.79-.5.25-1.48,1.48-1,.26c-.81.53-1.71,1.28-2.42,1.84-1,.76-1.93,1.54-2.88,2.33Z"/><path class="cls-3" d="M327.71,221.9l-1.33-1.33-.59.3-.5-1a7,7,0,0,1-3.5-3.89l-2.91-2.91.71-.71c-2.23-.29-4.55-.75-6.57-1.18a16.32,16.32,0,0,1,2.26,2.07c.71.78,1.34,1.69,2,2.44a27.62,27.62,0,0,0,4.6,3.89,21.31,21.31,0,0,0,5.79,2.31Z"/><path class="cls-3" d="M328,222v0l0,0Z"/><path class="cls-3" d="M326,248.77a7.55,7.55,0,0,1-.21-1.71l-1.55-.16v.93l-2.76,1.84v1.76a3.59,3.59,0,0,0,.26.93,8.5,8.5,0,0,1,4.26-3.59Z"/><path class="cls-3" d="M346.93,249.13c4.15,1.5,7.84,5.39,7.84,9.72v.5c0,4.63-4.5,8.13-8.88,8.13h-2.76a9.46,9.46,0,0,1-4.06-1,10.2,10.2,0,0,1-1.09,1.09,9.55,9.55,0,0,1,1,.6c1.15.37,2.27.87,3.33,1.32a19.06,19.06,0,0,0,2.17.84c2.64.68,5.27,1.29,7.87,2.14,4.81,1.56,10.24,2.16,15.22,3.13a33.08,33.08,0,0,0,4.22.38c2.7.15,5.4.2,8.09.23,7.25.07,14.54-.09,21.78-.46,6.91-.35,14-.86,20.81-1.88,2.08-.3,8.37-1.33,10.47-2.5l.64-1,1.23-.56-.38-8.5,1.15-1.72c.15-.25.29-.56.43-.82a12.48,12.48,0,0,1,2.19-3.08,43.54,43.54,0,0,0-11.37-1.49,13.32,13.32,0,0,1,1.77,3.78c2,6.78-2.49,12.53-9.75,11.68C408,268.48,402.93,256.32,408,247.09c3-5.53,9.48-7.9,15.47-8.21,13.61-.71,28.51,3.36,37.22,14.5a29.57,29.57,0,0,1,2.4,3.56,7,7,0,0,1,2.25-6.05,6.92,6.92,0,0,1,4.68-1.8h3c4.38,0,8.88,3.5,8.88,8.13v1c0,4.51-4.28,8.13-8.63,8.13h-.75a9,9,0,0,1-7-3.56,20.66,20.66,0,0,1,.33,10.31c-3.2,13.72-18.5,17.52-30.72,17.52h-10c-15.46,0-30.88,1.49-46.34,1.56-5.05,0-10.05-1-15.05-1l-2.14,0-.91-.68c-8.7-.8-29.47-5.2-36.88-8.56a25.15,25.15,0,0,1-6-2,35.81,35.81,0,0,0-3.9-1.68c-3.72-1.11-6.4-3.07-9.83-4.46a33.43,33.43,0,0,1-4.75-2.55c-1.09,4.13-4.46,7.63-9,7.63h-1a8.72,8.72,0,0,1-7.58-5.45,17.36,17.36,0,0,1-4.95.68,18.61,18.61,0,0,1-18.65-18.41v-3c0-2.45,2.27-7,4.06-9.24a15.63,15.63,0,0,1-3.22-1,17.77,17.77,0,0,1-11.11-16.88v-3a7.23,7.23,0,0,1,.61-3c1.2-10.75,11.57-22.48,18.73-29.65,3.69-3.69,8-7.34,12-10.73,2.77-2.36,8.94-7.79,13.19-10l.17-.18,1.51-1,.53-.54,1.27-.63,5-2.85,2.6,1.41,15.56-14,.7-.36c2.37-1.26,4.82-2.35,7.19-3.6,2.7-1.43,5.11-3,8.05-4,1.55-.53,3.3-1.58,4.83-2.28A26,26,0,0,1,342.4,140c2.21-.73,4.23-2.16,6.62-3l4.49-1.93,4.35-2,0,.1,1.41-.6a60.13,60.13,0,0,1,8.8-3.63c1-.35,2.21-1.25,3.37-1.7a5.14,5.14,0,0,1,.59-.22,13,13,0,0,0,3-1.25c2-1.09,3.81-2.34,5.76-3.44a27.79,27.79,0,0,1,12.86-3.71l2.39-.8,7.9,2,9.11-8.2,1.6-.37.29-.08c2.19-.64,4.43-2,6.72-2.74s4.64-2.27,7-3.17c4-1.52,8.72-4.72,12.29-7.1a64.23,64.23,0,0,0,10.72-8.87,17.64,17.64,0,0,0,3-4.65c2.5-5,5.4-8.42,11.57-8.42H467c4.51,0,8.88,4,8.88,8.62v.51c0,8.13-3.75,15.09-8.5,21.42a66.89,66.89,0,0,1-6.33,7.22c-2.31,2.31-4.7,4.06-7.17,6.14A54.38,54.38,0,0,1,443.68,127a6.87,6.87,0,0,1,.08.78l4.61.52-4.67,1.33c-.74,5.06-6.35,10.21-10.71,12.19a10.28,10.28,0,0,0-1,.5,7.38,7.38,0,0,1,.22,1.76c0,.2,0,.4,0,.59,5.1.81,9.79,4.26,9.79,9.95v.25c0,5.32-5.66,9.84-9.51,12.83-2.68,2.08-5.44,3.93-8.19,5.9a43.13,43.13,0,0,1-8.35,5.15L413.13,183c-2.09,3.12-9.12,6.1-12.5,8.16-.72.44-1.88,1.21-3.11,2.07,4.54,1.59,8.66,6.2,8.66,10.81v1.25a9,9,0,0,1-.39,2.63,13.83,13.83,0,0,1,7.41,12.17v.25c0,4.6-3.9,7.84-6,11.55L405.1,236l-11-1.83-1.12-.75a9,9,0,0,0-1.7-.41,13.31,13.31,0,0,1-5.48-2.1c-3-2.15-4.18-5.47-4.18-9.07v-.75c0-4.12.9-8.17,4-11a12.17,12.17,0,0,1-1.41-3.3c-.41.19-.81.41-1.2.62-2.95,1.64-5.29,3.21-8.59,4.27a110.37,110.37,0,0,1-13.19,3.49l.69,1,12.66,1.29-8.57,8.16h0v.25c0,7.36-10.28,9.25-15.82,10.36-1.9.38-4.11.8-6.31,1.1a10.39,10.39,0,0,1-.71,2.75,10,10,0,0,1,3.79,7.36v.5a6.75,6.75,0,0,1-.1,1.19Z"/><path class="cls-3" d="M181.05,228.05a7.43,7.43,0,0,1-2.49.42h-.26a7.68,7.68,0,0,1-2.44-.36l-.4.26a7.85,7.85,0,0,1,1.93.84c.31.18.58.35.83.53a7.61,7.61,0,0,1,3-.92l-.09-.31-.12-.46Z"/><polygon class="cls-3" points="81.58 135.76 79.19 136.03 79.52 136.48 80.5 136.48 81.58 135.76 81.58 135.76"/><path class="cls-3" d="M81.85,135.73h1.71a12.5,12.5,0,0,0,2.46-.5c-.66-.83-1.26-1.68-1.94-2.63a5.33,5.33,0,0,0-2.24-1.93l-.85-.45-4.2-4.2-6.9-.92a8.36,8.36,0,0,1,3.21,2.61l10.67,7.81-1.92.21Z"/><path class="cls-3" d="M140.72,160.38a73.79,73.79,0,0,1-10.11-4.85c-1.35-.78-3.24-1.38-4.7-2.06l-.48-.21a10.31,10.31,0,0,1-3.44,6.63l.13,2.09-3.52.44-.52.34h-2.29l-9,1.11v-1.11h-2.22l2.17-6.52a9.77,9.77,0,0,1-2.4,2,7.74,7.74,0,0,1-1.54,3.07l-1.67,2.4-1.17.09c2,.73,3.93,1.64,5.88,2.44a14.46,14.46,0,0,0,4.8,1.3h2c4.81,0,7.78-2.08,12-3.94s10.82-3,16.08-3.26Z"/><path class="cls-3" d="M84.21,164.75v-2.18h4.17c-1.06-.64-2.07-1.38-3-2.07-.58-.41-1.41-1.06-2.13-1.5H73.54l.88-3.78c-.6.11-1.2.19-1.78.24l0,.21a15.48,15.48,0,0,1-.48,2.51v.07c1.28,1.55,5.88,3.81,7.4,4.56.92.46,2.7,1.2,4.67,1.94Z"/><path class="cls-3" d="M141.88,202.44l3-4.14a18.36,18.36,0,0,1-5.2.83h-3.26a13.09,13.09,0,0,1-4.72-.92l-4.91-1.15v-3.33A7.17,7.17,0,0,1,123,189.2l-1.25.14-1.48-.26a16.83,16.83,0,0,1-2.89-.44l-.32-.08,0,1.58a9.16,9.16,0,0,1-.57,3h4.63l-.52,6.24a30.14,30.14,0,0,0,7.1,2.07c2.67.29,5.37,1,8,1Z"/><path class="cls-3" d="M153.89,222l0,0v0Z"/><path class="cls-3" d="M168.88,211.19c-2,.42-4.35.88-6.59,1.18l.71.71L160.09,216a6.87,6.87,0,0,1-3.51,3.9l-.49,1-.59-.3-1.33,1.33a21.23,21.23,0,0,0,5.78-2.31,27.3,27.3,0,0,0,4.61-3.89c.7-.75,1.33-1.66,2-2.44a15.34,15.34,0,0,1,2.28-2.07Z"/><path class="cls-3" d="M170.25,170.64l-1.5,2.07a11,11,0,0,1,.13,1.74v1.76a8.49,8.49,0,0,1-.44,2.79l-.26,1.16,4.11-.45,1,.18a17.16,17.16,0,0,1,2.82.48h3.38l1.89,2.83a16.18,16.18,0,0,1,1.77,3.19h2l3.77,4.6v.17h4l-3.05-4.56c-.95-.79-1.91-1.57-2.87-2.33-.71-.56-1.62-1.31-2.43-1.84l-1-.26-1.48-1.48-.5-.25-.79-.79-1.5-1-.8-.8-8.21-7.21Z"/><polygon class="cls-3" points="171.57 169.14 171.39 169.07 171.19 169.35 171.57 169.14 171.57 169.14"/><path class="cls-3" d="M155.89,248.77a8.59,8.59,0,0,1,4.26,3.59,3.59,3.59,0,0,0,.26-.93v-1.76l-2.76-1.84v-.93l-1.55.16a8.16,8.16,0,0,1-.21,1.71Z"/><path class="cls-3" d="M142.81,266.52a9.5,9.5,0,0,1-4.07,1H136c-4.38,0-8.87-3.5-8.87-8.13v-.5c0-4.33,3.69-8.22,7.83-9.72a7.85,7.85,0,0,1-.1-1.19v-.5a10,10,0,0,1,3.8-7.36,10.41,10.41,0,0,1-.72-2.75c-2.19-.3-4.4-.72-6.31-1.1-5.53-1.11-15.82-3-15.82-10.36v-.25h0l-8.56-8.16,12.65-1.29.69-1a109.72,109.72,0,0,1-13.18-3.49c-3.3-1.06-5.64-2.63-8.59-4.27-.4-.21-.8-.43-1.2-.62a12.2,12.2,0,0,1-1.42,3.3c3.13,2.88,4,6.93,4,11v.75c0,3.6-1.17,6.92-4.19,9.07a13.26,13.26,0,0,1-5.48,2.1,8.69,8.69,0,0,0-1.69.41l-1.13.75L76.78,236l-2.11-4.11c-2.1-3.71-6-7-6-11.55v-.25a13.83,13.83,0,0,1,7.41-12.17,9.3,9.3,0,0,1-.39-2.63v-1.25c0-4.61,4.12-9.22,8.66-10.81-1.22-.86-2.39-1.63-3.1-2.07-3.39-2.06-10.41-5-12.5-8.16l-2.84-4.24a43.21,43.21,0,0,1-8.36-5.15c-2.75-2-5.51-3.82-8.19-5.9-3.85-3-9.51-7.51-9.51-12.83v-.25c0-5.69,4.69-9.14,9.8-9.95a5.72,5.72,0,0,1,0-.59,6.9,6.9,0,0,1,.22-1.76c-.38-.22-.72-.39-1-.5-4.36-2-10-7.13-10.71-12.19l-4.68-1.33,4.61-.52q0-.39.09-.78A54.76,54.76,0,0,1,28,120.2c-2.46-2.08-4.85-3.83-7.16-6.14a64.78,64.78,0,0,1-6.33-7.22C9.77,100.51,6,93.55,6,85.42v-.51c0-4.58,4.36-8.62,8.87-8.62h.75c6.17,0,9.08,3.43,11.58,8.42a17.15,17.15,0,0,0,3,4.65,64.16,64.16,0,0,0,10.71,8.87c3.58,2.38,8.32,5.58,12.29,7.1,2.34.9,4.69,2.42,7,3.17s4.54,2.1,6.72,2.74l.3.08,1.59.37,9.11,8.2,7.9-2,2.4.8a27.75,27.75,0,0,1,12.85,3.71c2,1.1,3.81,2.35,5.77,3.44a13,13,0,0,0,3,1.25,5,5,0,0,1,.58.22c1.16.45,2.38,1.35,3.38,1.7a61,61,0,0,1,8.8,3.63l1.4.6,0-.1,4.36,2,4.49,1.93c2.38.8,4.4,2.23,6.61,3a26.13,26.13,0,0,1,2.7,1.07c1.53.7,3.28,1.75,4.83,2.28,2.93,1,5.34,2.61,8,4,2.37,1.25,4.83,2.34,7.2,3.6l.69.36,15.56,14,2.6-1.41,5,2.85,1.27.63.54.54,1.5,1,.18.18c4.24,2.25,10.42,7.68,13.18,10,4,3.39,8.27,7,12,10.73,7.16,7.17,17.54,18.9,18.73,29.65a7.23,7.23,0,0,1,.62,3v3a17.77,17.77,0,0,1-11.11,16.88,15.54,15.54,0,0,1-3.23,1c1.8,2.26,4.06,6.79,4.06,9.24v3a18.61,18.61,0,0,1-18.65,18.41,17.36,17.36,0,0,1-5-.68,8.69,8.69,0,0,1-7.58,5.45h-1c-4.54,0-7.92-3.5-9-7.63a33.9,33.9,0,0,1-4.74,2.55c-3.44,1.39-6.12,3.35-9.84,4.46a34.84,34.84,0,0,0-3.89,1.68,25.3,25.3,0,0,1-6,2c-7.41,3.36-28.18,7.76-36.88,8.56l-.92.68-2.13,0c-5,0-10,1-15,1-15.47-.07-30.89-1.56-46.34-1.56h-10c-12.21,0-27.51-3.8-30.71-17.52a20.59,20.59,0,0,1,.34-10.35,9.28,9.28,0,0,1-7,3.6H8.62c-4.34,0-8.62-3.62-8.62-8.13v-1c0-4.63,4.5-8.13,8.88-8.13h3a7,7,0,0,1,4.69,1.8,7.05,7.05,0,0,1,2.28,6,29.46,29.46,0,0,1,2.37-3.5c8.71-11.14,23.61-15.21,37.22-14.5,6,.31,12.44,2.68,15.46,8.21,5,9.23-.06,21.39-10.91,22.64-3.57.42-7.08-.73-9-3.93-2.13-3.54-1.22-8.27,1-11.53a43.74,43.74,0,0,0-11.34,1.48,17,17,0,0,1,2.58,3.91l1.15,1.72-.37,8.5,1.22.56.65,1c2.09,1.17,8.39,2.2,10.47,2.5,6.84,1,13.89,1.53,20.8,1.88,7.25.37,14.53.53,21.78.46,2.7,0,5.4-.08,8.09-.23a33.08,33.08,0,0,0,4.23-.38c5-1,10.41-1.57,15.22-3.13,2.59-.85,5.23-1.46,7.87-2.14a19.82,19.82,0,0,0,2.17-.84c1.06-.45,2.18-.95,3.32-1.32a10.62,10.62,0,0,1,1-.6,10.1,10.1,0,0,1-1.08-1.09Z"/><path class="cls-4" d="M66.27,131.06l.54-.06-1.29-.94c-2.06-.48-18.7-8.61-20.65-9.93a53.55,53.55,0,0,1-8.61-6.69c-1.26-1.26-2.33-2.63-3.51-4a31.78,31.78,0,0,1-2.57-5.2,33.7,33.7,0,0,1,4.1,1.92c1.46.73,3,.89,4.37,1.64,1,.59,7.41,3.2,8.66,3.62,4.48,1.5,12.87,6.5,17.71,6.61l1.53.21-.78-.71c-2.55-.59-4.81-2.06-7.56-3C56,113.83,53,112.06,51,111.28c-4.13-1.58-10-5.36-13.55-7.76a63.51,63.51,0,0,1-11.67-9.64,22.8,22.8,0,0,1-4.21-6.32c-1.24-2.48-2.32-4.9-5.88-4.9h-.75a2.92,2.92,0,0,0-2.51,2.25v.51c0,7.22,4.07,13.38,7.23,17.6a56,56,0,0,0,5.74,6.54,85.57,85.57,0,0,0,6.77,5.77c5.12,4.32,9.21,6.35,15.64,9.17a106.88,106.88,0,0,0,18.51,6.56Zm0,0,1.76.5a6.31,6.31,0,0,0-2.51-1.5l1.29.94-.54.06Zm47.62,5.77-4-1.45,3.79,2.2-1.49-1.28,1.74.53Zm9.53,3.76,8,3.77-8-3.77Zm6.51,2.26-2.75-1.25,2.75,1.25Zm-3.26-1.5-7-3,7,3Zm-7.52-2.51,3.26,1.5-3.26-1.5Zm-54.13,6-1.34-.81.59-.91,1-.29h-1c-.69.46-.92.47-1,1.42l1.72.59ZM84.82,125c4.49,2.38,4.32,4.59,7.32,7.47,1.57,1.5,7.67,3.83,10.32,4.47,2.31.56,3.12,1.51,5.06,2.21s3.71,1.35,5.52,2a103.35,103.35,0,0,1,10.43,4.36c.9.57,3.82,1.53,5.12,2.14,1.58.73,3.8,1.5,5.21,2.32a82.32,82.32,0,0,0,10.07,4.72c4.21,1.39,18,9.23,20.4,9.43l2,1,.18-.25-1-.79a44.8,44.8,0,0,0-6.59-3.18c-2.4-1-3.69-2-6.6-3.19-1.51-.59-1.74-1.12-2.94-1.81s-2.21-.89-3.42-1.6c-1.85-1.09-5.07-2-6.72-3.06-4-2.43-8.61-4.56-12.83-6.72a143.45,143.45,0,0,1-12.78-7l-3.79-2.2,4,1.45,5.26,2,3.26,1.5,1,.25,8,3.77L156,155.64l4,1.71-.78-.71c-2.38-1.25-4.74-2.29-7.19-3.59a56.42,56.42,0,0,0-7.14-3.64c-2.25-.77-4.79-2.46-7.45-3.33s-4.92-2.62-7.55-3.23l-2.75-1.25-.51-.25-7-3a76.45,76.45,0,0,0-8-3.3c-1.47-.51-2.57-1.45-3.88-1.88a17.08,17.08,0,0,1-4-1.73c-5.41-3-8.54-6.21-16.68-6.39l-.75-.25-.75-.25-1,.25.25.25ZM65,144.86l-1.72-.59c.05-1,.28-1,1-1.42h2.5c0-2.53-2.31-2-3.51-3.76.67-1,3.51-2.85,3.51-3.26,0-1.38-2.42-3.15-3.85-3.42a56.69,56.69,0,0,0-7.18-.09c-4.44,0-5.6-4.77-10-4.77h-.5c-.58,0-.75.18-.75.75v.25c0,2.58,5.08,6.59,7.05,7.49,2.35,1.07,7.5,4.26,7.73,7.06-1.21.28-3.26-.1-3.26,1,0,2.18,6.69,5,9.53,5h6.26c1.36,0,5.86-1.22,7.75-1.53,2.12-.33,4.7-1.76,7-2.25,2.58-.54,5-1.29,7.39-1.89,1.35-.33,7.41-.9,7.92-1.6-2,0-4.51-1.26-6.26-1.26H92.09c-2.6,0-5.92,1.51-8.53,1.51-1.08.72-10.06,3.51-12,3.51H68.28c-1.44,0-1.91-.64-3.26-.75Zm49.12,9.28-.75,2.25h2.76c1.59-1.06,3-2.08,3-4.76v-.25c0-2.15-2.37-5.77-4.51-5.77h-1.25c-.71,0-.46.11-.75.5,1.45.12,3.26,1.49,3.26,3v.75c0,1.81-1.09,3-1.76,4.27Zm-32.58-1.51h2.76c2,0,7.52,5.46,9.53,5.33l3.75-.31c.14-.2.5-.62.5-.75,0-4.23-7.77-3.06-7.77-5.52,0-.77.74-1,1.51-1,3.48,0,4.86,2.76,7.51,2.76h.76a2.79,2.79,0,0,0,2.25-2c-1.2-.1-4.26-1.39-5.76-1.76a33.3,33.3,0,0,0-6.52-1H88.33c-3.45,0-6.11,1.44-6.77,4.26Zm33.84,3.76h-2l.75-2.25a2.68,2.68,0,0,0-1,2.53l2.26-.28ZM98.35,175.71l-6.51-2c-2.64-.22-12.82-4-15.13-5.18-3.34-1.65-10.94-5.25-10.94-9.62v-.75c0-1.44.4-1.79.5-3-2.55-1.35-10.53-4.26-14.29-4.26-2.69,0-5.76,1.26-5.76,3.76v.25c0,3.52,12.14,11.48,15,13.55,2.24,1.59,6.09,4.62,9.25,5a40.31,40.31,0,0,1,6.31,1c1.78.48,4.1,2.77,4.5,2.77h3.51a10.24,10.24,0,0,0,3-.75l1.51-.1,5,.6c1.09.73,7.77,2.51,9.78,2.51l1.27.09,5-.82,0-.33-12.05-2.7Zm-6.51-2,6.51,2L97.1,175c1.7,0,5.5.11,7.52.25,1.49.1,5.65,2,5.76,2h1a32.31,32.31,0,0,0,10.06-1.46c2.75-1,5.81-1.89,8.56-3,5.6-2.23,10.8-4.84,18.47-4.84,13.43,0,7.3,9,13.78,9.53a3.39,3.39,0,0,0,.25-1.25v-1.76c0-5.58-10.42-7.77-16.54-7.77h-2.75c-5.21,0-12.36,1.18-16,2.79-4.41,1.94-8.11,4.48-14.57,4.48h-2c-6,0-12.19-5-17-5h-3v1.51c0,2.49,2.38,2.89,1.26,3.26Zm38.84,13c-2,0-2,1-.5,1.51,1.38,0,3,.6,3,1.75v2c1.21.28,1.57.75,3.26.75h3.26c3.12,0,5.91-1.75,9-2l4.82-1.3,1.49-.57-.49-.43c-2,0-4-1.24-4-3,0-2.07,5.27-3.78,5.27-7v-.76c0-1.32-4-1.25-5.52-1.25l-1.5-.07-5,.28-.73.49-14.74,2.57,0-.26-2,.08-4.25-.58h-1.5c-2.25,0-4.6.79-4.76,2.76,1.39.11,3.49,1,5.26,1l1,.18,10.76-1.18c1.9-1.28,7.76-1.51,11-1.51H146c-.26,3.14-3,4.52-5.56,5.22a93.88,93.88,0,0,1-9.73,1.3Zm35.84,0-1.55.6,1.81.66c1.11.09,3.25,1.17,3.25,2.25,0,3.31-14.42,4.23-16.29,6.77,4.94,0,8-2,13.54-2,2.27,0,4.78.46,5.26,2.26-2.44,1.17-7.07.59-8.52,2.75.72,1,2.58,1.26,4.26,1.26H170c1.66,0,15-3.36,15.29-3.76-3.14,0-2.75-1.28-2.8-4.22l-.46-.55h-2.5c-1.15-.77-1.35-1.42-1.91-2.86a8.17,8.17,0,0,0-1.6-3.16c-1.6,0-1.91-.5-3.51-.5l-.51-.1-5.51.6Zm-8.27,19.56c4.1,0,18.88-3.09,20.81-4.76a35,35,0,0,0-11.13,1.65c-1.81.51-8.72,2.45-9.68,3.11Zm-76.19-2.25v1.25c0,2,2.49,4.27,4.51,4.27,2.52,0,5-3.1,5-5.52v-3c0-.78-1.47-2-2.5-2H87.57c-2,0-5.51,2.83-5.51,5Zm136.85,4,.43,4.1-9.71-7.36c.63.93,9.24,7.69,10.28,7.77v-1.25c0-1.29-.24-2.7-1-3.26Zm-111.54-9.53a6.17,6.17,0,0,1-2.76-2.25c-.32-.54-1.74-3.27-.24-3.27h.75l2.25-.25c1.67-.14,3.22-1,3.26-2.76-6.4-.14-13,.2-16.74-2.8-2.22-1.77-3.29-2.45-4.81-5-1.22-2-2.33-4.52-5.52-4.52l-1.25-.06-4.47.42-3.8,1.4c.79,1.18,8.68,5.14,10.53,6.27,2.26,1.38,8.2,5.55,9.52,7.52-1.81,0-2.61-.94-2.76.76h.76c1.67,0,3,2.22,3.54,3.47.52,1.1,2.75,2.67,4.05,3.22,3.26,1.38,5.79,3.62,9.67,4.87,7.11,2.3,15.17,4.49,24.59,4.49l2.28.21,9.25-1.22v-.25H135.7c-3.4,0-5.48-.65-8.76-1-3.52-.39-13-3.05-13-6.51a14.91,14.91,0,0,1,.25-1.76h-1.5c-2.54,0-3.43-.57-5.27-1Zm40.86,13-.5.25-.25.25.25-.25.5-.25a14.73,14.73,0,0,1,1.75-.25h.25a7.35,7.35,0,0,1,2.26.5l.25.25.5.25.25.25.25.26.25.25c-.61,2.28-3.63.19-5,2.25v1.51l-1.25,1.25-.25.25.25-.25,1.25-1.25.75-2c1.42,0,5.26-.15,4.26-1.75l-.25-.25-.25-.26-.25-.25-.5-.25-.25-.25c-.44-.59-1-.75-2-.75h-1a1.31,1.31,0,0,0-1.25.5Zm0,0-.5.25-.25.25c-1.85,1-2.91,2.76-5.27,2.76a12.93,12.93,0,0,1-1.75-.25c0,.87.66,2.76-.25,2.76-3.72,0-5.19-2.26-9.28-2.26h-.75a3,3,0,0,0-2.75,1.26c1.3,1.94,7.2,3.26,10.77,3.26H142a20.47,20.47,0,0,0,3-.26c1.87-.2,1.33-.68,2.51-1l.25-.25,1.25-1.25v-1.51c1.38-2.06,4.4,0,5-2.25l-.25-.25-.25-.26-.25-.25-.5-.25-.25-.25a7.35,7.35,0,0,0-2.26-.5H150a14.73,14.73,0,0,0-1.75.25ZM75,220.1v.25c0,1.58,4.39,6.86,5.28,8.61l5-.84c3.51-2.35,8.52-.16,8.52-6.27v-.75c0-7.86-4-8.27-11.78-8.27a7.28,7.28,0,0,0-7,7.27Zm-34.58,7v.5c0,1.09,2.71,2.51,4,2.51H46a2.69,2.69,0,0,0,2.51-2.51v-.25a3.23,3.23,0,0,0-3.26-3.51c-2.16,0-4.76,1.25-4.76,3.26Zm171.18,6.52-.26.46-2,.29a4.93,4.93,0,0,1-3.25-1v1a16.29,16.29,0,0,0,.75,3.27c.1,1.17.5,1.24.5,2.5s-.23,2.45-1,3c-2.43-1.62-2-1.61-3.09-4.44-1.45-3.66-1.26-2.35-2.94-4.78l-1.49-.31c.81-3.06,7-4.6,7-9.28v-.25c0-4.06-3.25-4.26-3.25-9.28,0-1.68,1.34-3.76,3-3.76h1.76c2.24,0,5.16,3,6.45,4.32a10.55,10.55,0,0,1,3.07,7.72v1.25a21.35,21.35,0,0,1-1.53,5.74,7.53,7.53,0,0,1-3.73,3.54ZM182.82,173.2l.25.25.25.25,1.5,1,.25.25.25.25.5.26.25.25.25.25.26.25.25.25c1.79.48,15.51,12.36,17.48,14.36s6.35,5.86,7.88,7.91c2.06,2.75,5.21,6.48,6.72,9.33.76.56,1,2,1,3.26v1.25c-1-.08-9.65-6.84-10.28-7.77-1-.27-5.95-3.68-7.76-4.52a27,27,0,0,0-9.78-2.5h-3.51v.5c4.43,0,9.52,4.53,9.52,8.78v.25a4.13,4.13,0,0,1-3.5,3.51h-2c-2.53,0-6.39-3.26-9.52-3.26h-1.26c-.95,0-3,.7-3.25,1.48l3,.49.73.54c3.09,0,9.27,2.05,9.27,4.76,0,1.26-2.11,1.76-3.51,1.76l-.77.16-12.51-1.17c-2.36-.24-4.44,3.31-5.7,4.59a30.69,30.69,0,0,1-5.58,4.7c-3.11,2.1-10.73,4.51-16,4.51h-2.26c-7.47,0-9.69-7.78-17-7.78h-3.26c-1.43,0-1.91.64-3.28.78l1,1a7.35,7.35,0,0,0-.5,2.26v.25c0,2.64,16.86,5.52,21.06,5.52H148c4.39,0,13.4-1.43,15.84-3a25.29,25.29,0,0,0,2.89-1.62c.68-.57,2-1.58,2.71-2.06,1.16-.73,4.86-3.4,6.13-3.4s1.66.76,2.75.76h.26c1.61,0,5-4.52,7-4.52h2c2.39,0,4.76,1.23,4.76,3.51v.75c0,3.88-2.79,4-5,5,.26,1,.88,1,1.41,2.35.38,1,.51,2,.87,2.89a4.87,4.87,0,0,0,4.44,3l.3,2.51c.78,5.69-7.48,16.55-12.29,16.55h-.25c-.84,0-2-1.88-2-2.51v-1c0-4.29,10.27-7.37,10.27-12.29V236.9c0-1-5.33-1.75-6.51-1.75h-1.51c-2.16,0-2,3.51-3.5,3.51-2.68,0-2.85-4.27-5.52-4.27h-.5c-1.66,0-2.06,3.77-4.51,3.77h-.75c-1.18,0-1-4-3.51-4-2.19,0-6,5.27-7.77,5.27h-2c-2.92,0-4.9-3.26-8.77-3.26h-1c.06,3,3.11,4.77,6,4.77l2.52.08,5.75-.59h2.26c2.88,0,3.26,1.06,3.26,4,2.07,1.39,2.76,1.35,2.76,5.26v1.76c0,2.66-1.95,5.92-3.07,7.72-2.1,3.39-1.36,3.36-4.39,6.39-2.58,2.58-3,2.68-6.18,4.6a16.05,16.05,0,0,1-3.51,2c-1.38.55-3,.83-3.66,1.86-1.27,0-4.95,2-7,2.51-2.65.69-5,1.21-7.5,2-4.91,1.6-10.44,2.26-16,3.33-8.51,1.65-66.57,1-71.53-6.42-4.23-2-3.37-2.68-3.31-5.27l.31-7c-.89-1.31-1.38-3.51-3.26-3.51h-.5c-1.82,0-3.51,2.55-3.51,4.52h-1c-1.42,0-1.9-1.26-2.76-1.26h-.25c-.56,0-.55.2-1,.5v1a8.28,8.28,0,0,0-.51,2c0,.7.2.61.76.76,0-1.39.14-2,1.18-2.25l.32,2.25c.64,2.75,2.06,3.72,3.26,5.51a16.4,16.4,0,0,0,3.37,5.9c1.71,1.67,4.49,1.78,4.9,2.13l1.65.75-.15.25H41c-3.85,0-7.36-.87-9.68-2.6-4.91-3.66-9.5-16.23-4.59-21.19,3.21-3.3,14.09-11.59,34.16-9.81,5.05.45,7.83,3,6.15,8.89-.06.22-5.3-1.1-6.64.71-1.19,1.62-2.72,6.2,1.9,5.67,6.33-.74,8.94-8,6.06-13.26-1.62-3-5.63-4.67-10.21-4.91-14.82-.78-26,4.62-31.88,12.06-9.07,11.61-4.77,26.95,20.49,26.95h10c15.42,0,30.9,1.49,46.37,1.56,4.79,0,10.09-1,15.06-1l.72-.53c7,0,33.65-6.05,37.35-8.53,2.6,0,7.31-2.83,9.93-3.61,3.26-1,6.18-3,9.27-4.27s15.8-10.18,16.89-10.18h.5c5.4,0,2.3,10,12.28,10a12.24,12.24,0,0,0,12.28-12v-3c0-.83-2.21-4.78-2.82-5.45-3.06-3.35-.3-2.32-5.7-2.32a4.27,4.27,0,0,1-1-2.76c0-6.13,8-3.57,12.53-5.52a11.4,11.4,0,0,0,7.27-11v-3c0-.57-.2-.55-.5-1,0-9.37-11.84-22-17-27.15-3.18-3.18-21.11-19.12-24.38-20l-.25-.25-.25-.25-1.5-1-.25-.25-.5-.25L181,171.27l-.24.13,2,1.8Zm24.06,64.46-.5-.26c0-1.4-.51-1.39-.51-2.75v-1.51c.95.22,2.12,1,3,1h.5a7.35,7.35,0,0,0,2.26-.5,7.53,7.53,0,0,0,3.73-3.54,21.35,21.35,0,0,0,1.53-5.74v-1.25a10.55,10.55,0,0,0-3.07-7.72c-1.29-1.28-4.21-4.32-6.45-4.32h-1.76c-1.66,0-3,2.08-3,3.76,0,5,3.25,5.22,3.25,9.28v.25c0,4.68-6.2,6.22-7,9.28l1.49.31c1.68,2.43,1.49,1.12,2.94,4.78,1.13,2.83.66,2.82,3.09,4.44.77-.56,1-1.67,1-3s-.4-1.33-.5-2.5Zm0,0a16.29,16.29,0,0,1-.75-3.27v-1a4.93,4.93,0,0,0,3.25,1l2-.29.26-.46a7.35,7.35,0,0,1-2.26.5h-.5c-.89,0-2.06-.78-3-1v1.51c0,1.36.47,1.35.51,2.75l.5.26Zm-65.67,9.78v.5c0,.89,1.56,1.75,2.51,1.75h2.75c1.24,0,3.26-1.26,3.26-2.75v-.26c0-1.29-1.59-3.26-3-3.26h-.5c-1.95,0-5,2.23-5,4Zm5.77,12v1.25c0,1.84,2.33,3.26,4.26,3.26h.5c1.64,0,3.26-2.52,3.26-4v-3c0-1.61-1.07-2.51-2.76-2.51h-1c-2,0-4.26,2.91-4.26,5ZM6.37,257.22v1c0,.8,1.28,1.76,2.25,1.76h.76c2.19,0,4.15-4.52,2.5-4.52h-3c-1,0-2.51.87-2.51,1.76Zm185.22,15.3h1a2.56,2.56,0,0,0,1.76-1.76V270c0-.69-1.25-1.51-1.76-1.51h-4c0,1.8,1.24,4,3,4Zm-58.11-13.67v.5c0,.89,1.55,1.76,2.5,1.76h2.76c1.23,0,3.26-1.27,3.26-2.76v-.25c0-1.29-1.6-3.26-3-3.26h-.5c-2,0-5,2.22-5,4ZM415.6,131.06l-.53-.06,1.29-.94c2.05-.48,18.69-8.61,20.65-9.93a54,54,0,0,0,8.61-6.69c1.26-1.26,2.33-2.63,3.51-4a32.6,32.6,0,0,0,2.57-5.2,32.36,32.36,0,0,0-4.1,1.92c-1.47.73-3.06.89-4.37,1.64-1,.59-7.42,3.2-8.67,3.62-4.47,1.5-12.86,6.5-17.7,6.61l-1.54.21.79-.71c2.54-.59,4.8-2.06,7.55-3,2.2-.72,5.22-2.49,7.27-3.27,4.12-1.58,10-5.36,13.55-7.76a63.51,63.51,0,0,0,11.67-9.64,22.77,22.77,0,0,0,4.2-6.32c1.24-2.48,2.32-4.9,5.88-4.9H467a2.91,2.91,0,0,1,2.51,2.25v.51c0,7.22-4.06,13.38-7.22,17.6a56.06,56.06,0,0,1-5.75,6.54,87.28,87.28,0,0,1-6.76,5.77c-5.13,4.32-9.22,6.35-15.65,9.17a106.88,106.88,0,0,1-18.51,6.56Zm0,0-1.75.5a6.31,6.31,0,0,1,2.51-1.5l-1.29.94.53.06ZM368,136.83l4-1.45-3.8,2.2,1.5-1.28-1.75.53Zm-9.52,3.76-8,3.77,8-3.77Zm-6.52,2.26,2.76-1.25-2.76,1.25Zm3.26-1.5,7-3-7,3Zm7.52-2.51-3.26,1.5,3.26-1.5Zm54.14,6,1.34-.81-.59-.91-1-.29h1c.69.46.92.47,1,1.42l-1.72.59ZM397.06,125c-4.5,2.38-4.33,4.59-7.33,7.47-1.56,1.5-7.67,3.83-10.32,4.47-2.3.56-3.12,1.51-5.06,2.21s-3.71,1.35-5.51,2a103.35,103.35,0,0,0-10.43,4.36c-.91.57-3.82,1.53-5.13,2.14-1.57.73-3.8,1.5-5.2,2.32A82.32,82.32,0,0,1,338,154.74c-4.21,1.39-18,9.23-20.4,9.43l-2.05,1-.18-.25,1-.79A44.93,44.93,0,0,1,323,161c2.4-1,3.69-2,6.59-3.19a16.15,16.15,0,0,0,2.95-1.81c1.13-.66,2.21-.89,3.41-1.6,1.85-1.09,5.07-2,6.73-3.06,4-2.43,8.61-4.56,12.82-6.72a140.71,140.71,0,0,0,12.78-7l3.8-2.2-4,1.45-5.26,2-3.26,1.5-1,.25-8,3.77-24.56,11.28-4.05,1.71.79-.71c2.37-1.25,4.74-2.29,7.19-3.59a55.63,55.63,0,0,1,7.13-3.64c2.25-.77,4.79-2.46,7.45-3.33s4.92-2.62,7.55-3.23l2.76-1.25.5-.25,7-3a75.57,75.57,0,0,1,8-3.3c1.47-.51,2.57-1.45,3.88-1.88a17.08,17.08,0,0,0,4-1.73c5.4-3,8.53-6.21,16.67-6.39l.75-.25.76-.25,1,.25-.25.25Zm19.8,19.82,1.72-.59c-.05-1-.28-1-1-1.42H415.1c.06-2.53,2.31-2,3.51-3.76-.66-1-3.51-2.85-3.51-3.26,0-1.38,2.43-3.15,3.85-3.42a56.88,56.88,0,0,1,7.19-.09c4.43,0,5.59-4.77,10-4.77h.5c.58,0,.75.18.75.75v.25c0,2.58-5.08,6.59-7.06,7.49-2.34,1.07-7.49,4.26-7.73,7.06,1.21.28,3.26-.1,3.26,1,0,2.18-6.69,5-9.52,5h-6.27c-1.36,0-5.86-1.22-7.75-1.53-2.11-.33-4.69-1.76-7-2.25-2.57-.54-4.95-1.29-7.38-1.89-1.35-.33-7.41-.9-7.93-1.6,2,0,4.51-1.26,6.27-1.26h3.51c2.6,0,5.92,1.51,8.52,1.51,1.08.72,10.06,3.51,12,3.51h3.26c1.43,0,1.91-.64,3.26-.75Zm-49.13,9.28.76,2.25h-2.76c-1.59-1.06-3-2.08-3-4.76v-.25c0-2.15,2.37-5.77,4.51-5.77h1.26c.7,0,.46.11.75.5-1.45.12-3.26,1.49-3.26,3v.75c0,1.81,1.08,3,1.75,4.27Zm32.59-1.51h-2.76c-2,0-7.53,5.46-9.53,5.33l-3.75-.31c-.14-.2-.51-.62-.51-.75,0-4.23,7.77-3.06,7.77-5.52,0-.77-.73-1-1.5-1-3.49,0-4.86,2.76-7.52,2.76h-.75c-.65,0-2.17-.93-2.26-2,1.2-.1,4.26-1.39,5.77-1.76a33.09,33.09,0,0,1,6.51-1h1.76c3.44,0,6.11,1.44,6.77,4.26Zm-33.84,3.76h2l-.76-2.25a2.64,2.64,0,0,1,1,2.53l-2.25-.28Zm17,19.32,6.52-2c2.63-.22,12.81-4,15.13-5.18,3.34-1.65,10.94-5.25,10.94-9.62v-.75c0-1.44-.4-1.79-.51-3,2.56-1.35,10.53-4.26,14.29-4.26,2.7,0,5.77,1.26,5.77,3.76v.25c0,3.52-12.15,11.48-15,13.55-2.24,1.59-6.08,4.62-9.25,5a40,40,0,0,0-6.3,1c-1.78.48-4.11,2.77-4.5,2.77h-3.51a10.24,10.24,0,0,1-3-.75l-1.52-.1-5,.6c-1.08.73-7.77,2.51-9.77,2.51l-1.27.09-5-.82,0-.33,12-2.7Zm6.52-2-6.52,2,1.26-.76c-1.71,0-5.51.11-7.53.25-1.48.1-5.64,2-5.76,2h-1a32.37,32.37,0,0,1-10.07-1.46c-2.74-1-5.81-1.89-8.55-3-5.61-2.23-10.8-4.84-18.47-4.84-13.43,0-7.3,9-13.79,9.53a3.6,3.6,0,0,1-.25-1.25v-1.76c0-5.58,10.43-7.77,16.54-7.77h2.76c5.2,0,12.36,1.18,16,2.79,4.41,1.94,8.11,4.48,14.57,4.48h2c6,0,12.19-5,17.05-5h3v1.51c0,2.49-2.38,2.89-1.25,3.26Zm-38.85,13c2,0,2,1,.5,1.51-1.37,0-3,.6-3,1.75v2c-1.2.28-1.57.75-3.25.75h-3.26c-3.13,0-5.91-1.75-9-2l-4.82-1.3-1.48-.57.48-.43c2,0,4-1.24,4-3,0-2.07-5.26-3.78-5.26-7v-.76c0-1.32,4-1.25,5.51-1.25l1.51-.07,5,.28.73.49,14.73,2.57.05-.26,2,.08L360,179h1.51c2.25,0,4.6.79,4.76,2.76-1.4.11-3.5,1-5.26,1l-1,.18-10.76-1.18c-1.91-1.28-7.77-1.51-11-1.51H335.9c.26,3.14,3,4.52,5.56,5.22a94.61,94.61,0,0,0,9.73,1.3Zm-35.84,0,1.55.6-1.8.66c-1.12.09-3.26,1.17-3.26,2.25,0,3.31,14.43,4.23,16.29,6.77-4.93,0-8-2-13.53-2-2.28,0-4.78.46-5.26,2.26,2.43,1.17,7.07.59,8.52,2.75-.73,1-2.59,1.26-4.26,1.26h-1.76c-1.66,0-15-3.36-15.29-3.76,3.15,0,2.76-1.28,2.81-4.22l.45-.55h2.51c1.15-.77,1.34-1.42,1.9-2.86a8.18,8.18,0,0,1,1.61-3.16c1.6,0,1.9-.5,3.51-.5l.51-.1,5.5.6Zm8.27,19.56c-4.1,0-18.88-3.09-20.8-4.76A35,35,0,0,1,314,203.19c1.81.51,8.72,2.45,9.67,3.11Zm76.19-2.25v1.25c0,2-2.48,4.27-4.51,4.27-2.52,0-5-3.1-5-5.52v-3c0-.78,1.48-2,2.51-2h1.5c2,0,5.51,2.83,5.51,5Zm-136.84,4-.43,4.1,9.7-7.36c-.62.93-9.23,7.69-10.27,7.77v-1.25c0-1.29.24-2.7,1-3.26Zm111.53-9.53a6.12,6.12,0,0,0,2.76-2.25c.33-.54,1.75-3.27.25-3.27h-.75l-2.26-.25c-1.66-.14-3.22-1-3.26-2.76,6.41-.14,13,.2,16.75-2.8,2.21-1.77,3.28-2.45,4.81-5,1.22-2,2.32-4.52,5.51-4.52l1.26-.06,4.47.42,3.79,1.4c-.78,1.18-8.68,5.14-10.52,6.27-2.27,1.38-8.2,5.55-9.53,7.52,1.82,0,2.62-.94,2.76.76h-.75c-1.68,0-3,2.22-3.54,3.47-.52,1.1-2.76,2.67-4.06,3.22-3.25,1.38-5.79,3.62-9.66,4.87-7.11,2.3-15.17,4.49-24.6,4.49l-2.28.21-9.25-1.22v-.25h9.78c3.4,0,5.47-.65,8.76-1,3.51-.39,13-3.05,13-6.51a13.08,13.08,0,0,0-.25-1.76h1.51c2.54,0,3.43-.57,5.26-1Zm-40.85,13,.5.25.25.25-.25-.25-.5-.25a14.91,14.91,0,0,0-1.76-.25h-.25a7.22,7.22,0,0,0-2.25.5l-.25.25-.51.25-.25.25-.25.26-.25.25c.61,2.28,3.64.19,5,2.25v1.51l1.26,1.25.25.25-.25-.25-1.26-1.25-.75-2c-1.42,0-5.25-.15-4.26-1.75l.25-.25.25-.26.25-.25.51-.25.25-.25c.43-.59,1-.75,2-.75h1a1.33,1.33,0,0,1,1.26.5Zm0,0,.5.25.25.25c1.84,1,2.91,2.76,5.26,2.76a13.08,13.08,0,0,0,1.76-.25c0,.87-.67,2.76.25,2.76,3.72,0,5.19-2.26,9.27-2.26h.75a3,3,0,0,1,2.76,1.26c-1.3,1.94-7.21,3.26-10.78,3.26h-3.76a20.2,20.2,0,0,1-3-.26c-1.88-.2-1.34-.68-2.51-1l-.25-.25-1.26-1.25v-1.51c-1.37-2.06-4.4,0-5-2.25l.25-.25.25-.26.25-.25.51-.25.25-.25a7.22,7.22,0,0,1,2.25-.5h.25a14.91,14.91,0,0,1,1.76.25Zm73.18,8.53v.25c0,1.58-4.38,6.86-5.28,8.61l-5-.84c-3.51-2.35-8.53-.16-8.53-6.27v-.75c0-7.86,4-8.27,11.78-8.27a7.28,7.28,0,0,1,7,7.27Zm34.59,7v.5c0,1.09-2.71,2.51-4,2.51h-1.5a2.69,2.69,0,0,1-2.51-2.51v-.25a3.22,3.22,0,0,1,3.26-3.51c2.15,0,4.76,1.25,4.76,3.26Zm-171.18,6.52.25.46,2,.29a5,5,0,0,0,3.26-1v1a16.29,16.29,0,0,1-.75,3.27c-.1,1.17-.5,1.24-.5,2.5s.22,2.45,1,3c2.43-1.62,2-1.61,3.08-4.44,1.45-3.66,1.27-2.35,2.94-4.78l1.5-.31c-.82-3.06-7-4.6-7-9.28v-.25c0-4.06,3.26-4.26,3.26-9.28,0-1.68-1.34-3.76-3-3.76H274.5c-2.25,0-5.16,3-6.46,4.32a10.55,10.55,0,0,0-3.07,7.72v1.25a21.36,21.36,0,0,0,1.54,5.74,7.53,7.53,0,0,0,3.73,3.54Zm28.82-60.44-.25.25-.25.25-1.51,1-.25.25-.25.25-.5.26-.25.25-.25.25-.25.25-.25.25c-1.79.48-15.51,12.36-17.48,14.36s-6.36,5.86-7.89,7.91c-2.05,2.75-5.21,6.48-6.71,9.33-.76.56-1,2-1,3.26v1.25c1-.08,9.65-6.84,10.27-7.77,1-.27,5.95-3.68,7.76-4.52a27.07,27.07,0,0,1,9.79-2.5h3.5v.5c-4.43,0-9.52,4.53-9.52,8.78v.25a4.13,4.13,0,0,0,3.51,3.51h2c2.54,0,6.4-3.26,9.53-3.26h1.25c1,0,3,.7,3.26,1.48l-3,.49-.72.54c-3.09,0-9.27,2.05-9.27,4.76,0,1.26,2.1,1.76,3.51,1.76l.76.16,12.52-1.17c2.36-.24,4.43,3.31,5.7,4.59a30.36,30.36,0,0,0,5.58,4.7c3.11,2.1,10.73,4.51,16,4.51h2.25c7.48,0,9.7-7.78,17.05-7.78H357c1.43,0,1.91.64,3.28.78l-1,1a7.35,7.35,0,0,1,.5,2.26v.25c0,2.64-16.85,5.52-21,5.52H333.9c-4.39,0-13.4-1.43-15.85-3a26.17,26.17,0,0,1-2.89-1.62c-.68-.57-2-1.58-2.71-2.06-1.16-.73-4.85-3.4-6.12-3.4s-1.66.76-2.76.76h-.25c-1.62,0-5-4.52-7-4.52h-2c-2.39,0-4.77,1.23-4.77,3.51v.75c0,3.88,2.79,4,5,5-.26,1-.89,1-1.41,2.35-.39,1-.51,2-.88,2.89a4.85,4.85,0,0,1-4.43,3l-.3,2.51c-.78,5.69,7.48,16.55,12.28,16.55h.25c.85,0,2-1.88,2-2.51v-1c0-4.29-10.28-7.37-10.28-12.29V236.9c0-1,5.34-1.75,6.52-1.75h1.5c2.17,0,2,3.51,3.51,3.51,2.67,0,2.84-4.27,5.51-4.27h.51c1.65,0,2.05,3.77,4.51,3.77h.75c1.17,0,1-4,3.51-4,2.19,0,6,5.27,7.77,5.27h2c2.92,0,4.9-3.26,8.77-3.26h1c-.07,3-3.11,4.77-6,4.77l-2.51.08-5.76-.59h-2.25c-2.89,0-3.26,1.06-3.26,4-2.08,1.39-2.76,1.35-2.76,5.26v1.76c0,2.66,1.94,5.92,3.06,7.72,2.11,3.39,1.37,3.36,4.4,6.39,2.58,2.58,3,2.68,6.18,4.6a16.05,16.05,0,0,0,3.51,2c1.38.55,3,.83,3.65,1.86,1.27,0,5,2,7,2.51,2.65.69,5,1.21,7.49,2,4.91,1.6,10.44,2.26,16,3.33,8.5,1.65,66.57,1,71.52-6.42,4.23-2,3.37-2.68,3.32-5.27l-.31-7c.88-1.31,1.38-3.51,3.26-3.51h.5c1.81,0,3.51,2.55,3.51,4.52h1c1.42,0,1.89-1.26,2.76-1.26h.25c.56,0,.55.2,1,.5v1a8.75,8.75,0,0,1,.5,2c0,.7-.19.61-.75.76,0-1.39-.14-2-1.19-2.25l-.31,2.25c-.64,2.75-2.06,3.72-3.26,5.51a16.5,16.5,0,0,1-3.38,5.9c-1.71,1.67-4.49,1.78-4.89,2.13l-1.66.75.15.25h2.51c3.84,0,7.36-.87,9.68-2.6,4.9-3.66,9.49-16.23,4.59-21.19-3.22-3.3-14.1-11.59-34.16-9.81-5,.45-7.83,3-6.15,8.89.06.22,5.3-1.1,6.64.71,1.19,1.62,2.71,6.2-1.91,5.67-6.33-.74-8.94-8-6.05-13.26,1.62-3,5.63-4.67,10.21-4.91,14.82-.78,26.05,4.62,31.87,12.06,9.08,11.61,4.78,26.95-20.49,26.95h-10c-15.42,0-30.9,1.49-46.37,1.56-4.8,0-10.09-1-15.07-1l-.72-.53c-7,0-33.65-6.05-37.34-8.53-2.61,0-7.32-2.83-9.93-3.61-3.27-1-6.19-3-9.27-4.27s-15.8-10.18-16.9-10.18H289c-5.39,0-2.29,10-12.28,10a12.24,12.24,0,0,1-12.28-12v-3c0-.83,2.21-4.78,2.82-5.45,3.07-3.35.31-2.32,5.7-2.32a4.22,4.22,0,0,0,1-2.76c0-6.13-8-3.57-12.53-5.52a11.4,11.4,0,0,1-7.27-11v-3c0-.57.19-.55.5-1,0-9.37,11.83-22,17-27.15,3.18-3.18,21.1-19.12,24.37-20l.25-.25.25-.25,1.51-1,.25-.25.5-.25,2.06-1.18.24.13-2.05,1.8ZM275,237.66l.5-.26c0-1.4.5-1.39.5-2.75v-1.51c-.94.22-2.12,1-3,1h-.5a7.22,7.22,0,0,1-2.25-.5,7.53,7.53,0,0,1-3.73-3.54,21.36,21.36,0,0,1-1.54-5.74v-1.25a10.55,10.55,0,0,1,3.07-7.72c1.3-1.28,4.21-4.32,6.46-4.32h1.75c1.67,0,3,2.08,3,3.76,0,5-3.26,5.22-3.26,9.28v.25c0,4.68,6.2,6.22,7,9.28l-1.5.31c-1.67,2.43-1.49,1.12-2.94,4.78-1.12,2.83-.65,2.82-3.08,4.44-.78-.56-1-1.67-1-3s.4-1.33.5-2.5Zm0,0a16.29,16.29,0,0,0,.75-3.27v-1a5,5,0,0,1-3.26,1l-2-.29-.25-.46a7.22,7.22,0,0,0,2.25.5h.5c.89,0,2.07-.78,3-1v1.51c0,1.36-.47,1.35-.5,2.75l-.5.26Zm65.66,9.78v.5c0,.89-1.55,1.75-2.5,1.75H335.4c-1.23,0-3.26-1.26-3.26-2.75v-.26c0-1.29,1.6-3.26,3-3.26h.5c2,0,5,2.23,5,4Zm-5.76,12v1.25c0,1.84-2.33,3.26-4.26,3.26h-.5c-1.64,0-3.26-2.52-3.26-4v-3c0-1.61,1.06-2.51,2.76-2.51h1c2,0,4.26,2.91,4.26,5Zm140.61-2.26v1c0,.8-1.28,1.76-2.26,1.76h-.75c-2.2,0-4.15-4.52-2.51-4.52h3c.95,0,2.51.87,2.51,1.76Zm-185.22,15.3h-1a2.56,2.56,0,0,1-1.75-1.76V270c0-.69,1.24-1.51,1.75-1.51h4c0,1.8-1.24,4-3,4Zm58.11-13.67v.5c0,.89-1.56,1.76-2.51,1.76h-2.76c-1.23,0-3.25-1.27-3.25-2.76v-.25c0-1.29,1.59-3.26,3-3.26h.51c1.95,0,5,2.22,5,4Z"/><polygon class="cls-3" points="94.74 299.19 244.44 333.62 383.09 299.08 360.45 257.39 347.18 251.76 294.16 261.62 234.83 276.9 187.61 263.02 146.93 254.78 137.44 253.86 124.39 255.18 94.74 299.19 94.74 299.19"/><path class="cls-5" d="M280.83,260.7c16.23-4.14,45-7.59,69.31-7.59-26.95,5.73-54.74,9.26-83.94,20-1.46.72-9.51,4.62-10.09,4.75-10.43,3.81-10.39,6.35-13.92,9.33.33,2.57-.32,2.81-.22,12.59v27.92c1.87-1.26,3.33-3.17,5.8-4.81s4.34-2.5,6.64-4a99.5,99.5,0,0,1,14.42-6.44c10.26-2.84,21.5-7.11,32.84-8.87,11.07-1.7,24.45-4.6,37.16-4.54,2.39,0,7.6-.42,9.92-.69,3-.36,7.22.36,10.15-.1,5.71-.9,14.15-.28,20.58-.28-10.88-18.83-17.39-32.08-20.89-37.59-3.35-5.27-1.46-5.11,3.57.4,5.64,6.18,19.08,24.56,23.68,41.78-30.22,0-58.88,4.5-84.64,9.4a264.09,264.09,0,0,0-37,10,83.63,83.63,0,0,0-15.86,7.83,32.21,32.21,0,0,0-6.27,5.39c-2.54,3-2.55,5.63-4,7.69-1.12-13.5-25.56-20.65-37.51-24.7-3.73-1.26-8.26-2.34-12.25-3.3-3.76-.91-9-1.68-12.75-2.8-3.3-1-23-4.55-26.56-4.55h-.71c-1.18,0-12.34,3-12.73,3.54,11.82,0,21,2.05,31.1,3.19s18.74,4.1,27.58,6.36c6.95,1.77,18.72,6.42,24.11,9.82,5,3.17,16.41,10.19,18,16h-2.13c-.38,0-5.34-4-6.29-4.66a57.14,57.14,0,0,0-7-3.94,93,93,0,0,0-15.74-6.17c-11.24-3-22.75-6.69-35.24-8.6-6.19-.94-12.29-2.39-18.76-3.15-6-.7-13.27-2.43-19.1-2.82-4.39-.29-37.75-4-38.89-4.94l17.67-1.51,7.08.09c.06-2.73,2.26-6.9-.32-7.1-3.21-.24-5.65.08-8.8-.4-4.31-.64-12.71-.63-17.75-.63.29-3.41,31-46.46,33.94-48.42L97.1,298l23.27,0c0-5.58,4.68-17.58,6.08-22.91,1.18-4.49,7.85-18,8.06-20.57l-5.27-.88,0-.18h6.36c.25-1.05,39,6,69.12,12.81,18.1,4.1,33.95,9.79,34.21,8.92,13.31-3.89,19.13-9.85,41.93-14.49Zm-142.1-7.46c-3.28,2.2-7.94,44-11.84,45.62-.3.13-3.69-1-1.59-.8,9.13.87,40.27,3.56,40,3.83,9.18.76,30.65,6.4,38.31,9.4,6.12,2.39,11.28,3.89,16.95,6.74a70.31,70.31,0,0,1,7.58,4.43c2.65,1.76,4.44,3.89,6.44,5.23V304.36c0-3.69.48-8-.2-11.47-.39-2,.14-13.66-1.57-13.66L222.71,276c-38.08-11.77-49.8-14.13-84-22.72ZM93.15,324.15l30.76-1.76c10.47-.66,24.31,1.76,33.93,2.48s21.89,4.08,30.48,6.28a136.57,136.57,0,0,1,26.2,10.2,62.38,62.38,0,0,1,11.1,7.28c4.61,4,4.6,5.22,13.17,5.22h1.41c6.53,0,8.07-3.35,11.87-6.16a70.86,70.86,0,0,1,11.11-6.92,139.9,139.9,0,0,1,26.36-10c10.18-2.63,18.94-4.12,30-6,7.83-1.32,25.25-2.9,34.1-2.56l29.67,2c-2.12,1.48-69.13,8.19-79.48,11.36-2.69.83-6.46,1-9.45,1.86-2.62.73-6.82,1.58-9.34,2a142,142,0,0,0-17.77,4.85c-2.81,1.12-5.68,1.85-8.39,2.93-3.14,1.25-2.22,3.73-4.53,6.78-2.84,3.77-7.85,7.63-14.25,7.63l.07-.87L238.79,362h-.71c-8.09,0-18.38-6.69-18.38-13.79-8.39-5.62-46.16-12.57-60.22-15.07-7.49-1.32-65-7.78-66.33-9Zm149.53,22.27H240.2c6.16-11.64,28.31-22.8,43.11-26.18,8.74-2,18.42-5.47,28.31-6.33,10.13-.87,20.34-3.19,31.8-3.19l17.34-.22,22.6,1.64c-.89.62-34.78,4.75-38.53,4.95-6,.31-13.21,2.29-19.09,2.81-6.27.56-12.89,2.23-18.76,3.16a224,224,0,0,0-35.31,8.52c-5.68,2-10.59,3.49-15.8,6.12-2.72,1.38-4.53,2.42-7.07,3.89s-4.11,3.49-6.12,4.83Z"/><path class="cls-6" d="M62.46,55.73,67,58.86l-1.1-5.47c-.15-.61-.31-1.14-.46-1.6a4.91,4.91,0,0,0-.48-1,1.18,1.18,0,0,0-1.24-.43,5.17,5.17,0,0,0-2,.91,4.25,4.25,0,0,0-1.41,1.4,1.12,1.12,0,0,0,0,1.24,4.86,4.86,0,0,0,.77.8,16,16,0,0,0,1.39,1.06Zm7.75,19.75-2.5-12-8.73-6a6.22,6.22,0,0,0-3.41-1.41,7.13,7.13,0,0,0-3.29,1.42,5.58,5.58,0,0,0-1.83,1.8,1.49,1.49,0,0,0,0,1.61,5.61,5.61,0,0,0,.79.87,9.62,9.62,0,0,0,1.23,1l17.7,12.67Zm.57,4.88-21.12-15a10.32,10.32,0,0,0-4.2-2.09,4.87,4.87,0,0,0-3.19,1l-.57-.85L68.89,45.07l.57.84a6.19,6.19,0,0,0-2.07,2.19,5.45,5.45,0,0,0,0,3.15l1.8,8.81L81,68.17,75.89,46.6l0-.18a8.87,8.87,0,0,0-.9-2.53,1.12,1.12,0,0,0-1.27-.4,6.62,6.62,0,0,0-2.23,1.08l-.57-.85,7.49-5,.61.82c-1.4,1.19-1.82,3-1.24,5.39a3.61,3.61,0,0,0,.11.43L84,71.44l-2.17,1.47L70.06,64.85l2.92,14-2.2,1.48ZM104.07,54a12.64,12.64,0,0,0-5-5.81,6,6,0,0,0-5.84-.3,5.1,5.1,0,0,0-2.9,3.63A8.3,8.3,0,0,0,91.2,57a12.75,12.75,0,0,0,5,5.83,6,6,0,0,0,5.8.35,5.22,5.22,0,0,0,3-3.66,8.48,8.48,0,0,0-1-5.54Zm2.79-2.79a9.39,9.39,0,0,1,.48,7.61,10,10,0,0,1-5.3,5.73,9.81,9.81,0,0,1-13.43-4.68,9.34,9.34,0,0,1-.46-7.59,10,10,0,0,1,5.3-5.7,9.81,9.81,0,0,1,13.41,4.63Zm9.44-22.88a2,2,0,0,0-1.07-1.26,6,6,0,0,0-2.46,0l-.32-.78,4.7-4.15.34-.14L128,48a3.08,3.08,0,0,0,1.37,1.83,3.22,3.22,0,0,0,2.21-.26l.42.84-8.42,3.4-.35-.87a3.32,3.32,0,0,0,1.83-1.39,3,3,0,0,0-.28-2.25l-8.47-21ZM134,35.81l8.85-2.7a6.21,6.21,0,0,0-2.5-3,4.19,4.19,0,0,0-5.82,1.73,6.94,6.94,0,0,0-.53,4ZM149,40.7a14.38,14.38,0,0,1-2.65,4.66,7.88,7.88,0,0,1-3.6,2.35,7.5,7.5,0,0,1-6.48-.91,10.52,10.52,0,0,1-4.29-6,10.58,10.58,0,0,1,.29-7.75,8.22,8.22,0,0,1,5.35-4.62q4.13-1.26,9.11,3.52l.07.07.27.82-12.93,4c.06.33.11.64.18.95s.16.61.25.91A9.66,9.66,0,0,0,138.18,44a6.16,6.16,0,0,0,5.49.81,6.44,6.44,0,0,0,2.56-1.54,11.24,11.24,0,0,0,2.16-3l.56.37Zm3.5-2.3.86-.23A6,6,0,0,0,156,40.7a4.78,4.78,0,0,0,3.38.26,4.29,4.29,0,0,0,2.55-1.68,3.14,3.14,0,0,0,.43-2.72c-.32-1.19-1.9-2.07-4.75-2.66-1.11-.21-2-.4-2.6-.56a8,8,0,0,1-3.19-1.42,4.49,4.49,0,0,1-1.52-2.42,4.37,4.37,0,0,1,.9-4,7.93,7.93,0,0,1,4.38-2.68,10.58,10.58,0,0,1,2.32-.36,13.17,13.17,0,0,1,2.55.11l1,3.92-.78.2a5.39,5.39,0,0,0-2.33-2.41,4.35,4.35,0,0,0-3.1-.19,3.64,3.64,0,0,0-2.2,1.43,2.7,2.7,0,0,0-.35,2.3,2.92,2.92,0,0,0,1,1.55,3.85,3.85,0,0,0,1.84.85l.89.14q7.47,1.28,8.34,4.51a5.28,5.28,0,0,1-.63,4.36,6.32,6.32,0,0,1-3.84,2.68,15.77,15.77,0,0,1-3,.46c-1.08.07-1.64.1-1.7.12a.62.62,0,0,0-.34.26,1.84,1.84,0,0,0-.19.55l-.8.27-1.87-5.14Zm17.89-13.09,9.08-1.77a6.2,6.2,0,0,0-2.18-3.22,4.18,4.18,0,0,0-6,1.11,7,7,0,0,0-.94,3.88Zm14.34,6.42a14.65,14.65,0,0,1-3.12,4.36A7.75,7.75,0,0,1,177.72,38a7.42,7.42,0,0,1-6.34-1.58A10.45,10.45,0,0,1,167.74,30a10.6,10.6,0,0,1,1.1-7.68,8.25,8.25,0,0,1,5.8-4q4.25-.82,8.69,4.45l.06.08.19.84-13.27,2.58c0,.34.05.66.08,1s.09.62.15.94a9.63,9.63,0,0,0,3.08,5.75A6.15,6.15,0,0,0,179,35.3,6.39,6.39,0,0,0,181.7,34a11.48,11.48,0,0,0,2.46-2.73l.52.42ZM202.93,23c0-.18-.07-.45-.11-.82s-.08-.62-.1-.79c-.38-2.38-.89-4-1.55-4.76a2.87,2.87,0,0,0-2.87-.89,6.31,6.31,0,0,0-2.35,1,27.86,27.86,0,0,0-3.34,2.59l1.76,11.11a3.1,3.1,0,0,0,.92,2.07,3.41,3.41,0,0,0,2.29.25l.14.92-8.94,1.42-.15-.92a3.39,3.39,0,0,0,2.08-.94,3,3,0,0,0,.25-2.26l-1.7-10.77a2,2,0,0,0-.76-1.44,5.83,5.83,0,0,0-2.4-.56l-.13-.84,5.59-2.77.3-.05.57,3.6a31.57,31.57,0,0,1,4.32-3.28,9.41,9.41,0,0,1,3.27-1.3,4.33,4.33,0,0,1,4,1q1.37,1.46,2,5.5c.09.58.16,1,.2,1.34s.07.62.09.92l.41,3.69c0,.14,0,.35.07.61.1.9.18,1.53.23,1.87q.26,1.63,1.05,2a5.08,5.08,0,0,0,2.74.11l.17.92-10,1.58-.14-.93.21,0a2.53,2.53,0,0,0,2.15-1.42q.48-1.14.06-4.62L202.93,23Zm23,7.57-1.35-7.07,1,.08a9.63,9.63,0,0,0,3.22,4.68,7.42,7.42,0,0,0,5,1.42,6.83,6.83,0,0,0,4.5-1.81A4.78,4.78,0,0,0,239.88,24q-.16-3.19-6.24-6.74l-.73-.44-.32-.18q-5.85-3.45-7-5.09a8.75,8.75,0,0,1-1.07-2,6.82,6.82,0,0,1-.42-2.11,6.14,6.14,0,0,1,2.11-5.16A9.87,9.87,0,0,1,232.44,0a13.27,13.27,0,0,1,3.73.39,13,13,0,0,0,2.46.46,2.53,2.53,0,0,0,.71-.13,4.77,4.77,0,0,0,.76-.32l1.13,6.06-.93.09a9.92,9.92,0,0,0-3.21-4,6.7,6.7,0,0,0-4.3-1.25A5.77,5.77,0,0,0,229,2.72,4.05,4.05,0,0,0,227.69,6c.11,2,2.32,4.26,6.65,6.75l.16.08.63.36a31.09,31.09,0,0,1,5.86,4,7.62,7.62,0,0,1,1.64,2.29,7.14,7.14,0,0,1,.69,2.67A7.48,7.48,0,0,1,241,28.41c-1.69,1.55-4.12,2.41-7.26,2.57a12.15,12.15,0,0,1-3.41-.4,12.67,12.67,0,0,0-2.66-.44,6.51,6.51,0,0,0-.93.13,7.93,7.93,0,0,0-.83.25Zm27.83-4.67a11.16,11.16,0,0,0,2.61,1.94,6.12,6.12,0,0,0,2.62.7,5,5,0,0,0,4.26-2,9.38,9.38,0,0,0,1.67-5.69,8.78,8.78,0,0,0-1.69-5.61,5.33,5.33,0,0,0-4.27-2.35,5.83,5.83,0,0,0-2.24.45,14.23,14.23,0,0,0-2.76,1.5l-.2,11.11Zm-3.28-10.91a2.08,2.08,0,0,0-.48-1.57,5.75,5.75,0,0,0-2.23-.95l0-.85,6-1.76H254l-.06,3.68a19.15,19.15,0,0,1,3.85-2.28A8.24,8.24,0,0,1,261,10.5a6.25,6.25,0,0,1,5,2.57,9.54,9.54,0,0,1,1.9,6.24,11,11,0,0,1-3,7.67,9.07,9.07,0,0,1-7,3,10.34,10.34,0,0,1-1.87-.23,22.37,22.37,0,0,1-2.36-.65l-.13,7.48a3,3,0,0,0,.56,2.2,3.36,3.36,0,0,0,2.19.65l0,.94-9.07-.16.06-.93a3.36,3.36,0,0,0,2.18-.57,3.09,3.09,0,0,0,.62-2.19l.38-21.61Zm31.12,7.4A41.43,41.43,0,0,1,277.13,24c-.48.15-.8.25-.94.31a2.43,2.43,0,0,0-1.08.88,3,3,0,0,0-.48,1.4,2.53,2.53,0,0,0,.56,1.9,2.38,2.38,0,0,0,1.71.9,4.39,4.39,0,0,0,1.89-.33,11.27,11.27,0,0,0,2.3-1.27l.47-5.4ZM281,28.71a9.74,9.74,0,0,1-2.81,1.84,6.17,6.17,0,0,1-2.84.44,4.4,4.4,0,0,1-3-1.3,3.65,3.65,0,0,1-.87-2.94,3.7,3.7,0,0,1,2.68-3.32c.22-.07,1.17-.32,2.86-.75s3.23-.89,4.61-1.36l.29-3.37a6.54,6.54,0,0,0-.43-3.76A3,3,0,0,0,279,12.92a2.66,2.66,0,0,0-2,.48,2.35,2.35,0,0,0-.86,1.75c0,.19,0,.33,0,.41a1.13,1.13,0,0,0,0,.26l-3.38,1.06v-.19a5.18,5.18,0,0,1,2.56-3.79,7.57,7.57,0,0,1,5-1.39,6.22,6.22,0,0,1,2,.5,5.29,5.29,0,0,1,1.61,1.08A4.61,4.61,0,0,1,285.16,15a10.1,10.1,0,0,1,.1,3.39l0,.35-.7,8.06a5,5,0,0,0,.07,2.06,1,1,0,0,0,.9.53,2.81,2.81,0,0,0,1-.12,8,8,0,0,0,1.28-.53l.17.69a15.76,15.76,0,0,1-2.74,1.83,3.77,3.77,0,0,1-2,.48,2.18,2.18,0,0,1-1.65-.89,3.53,3.53,0,0,1-.6-2.12Zm14.21.14a3,3,0,0,0,.33,2.25,3.36,3.36,0,0,0,2.11.87l-.11.93-8.9-1.09.11-.93a3.29,3.29,0,0,0,2.25-.33,3,3,0,0,0,.87-2.11l1.74-14.1c.56-4.56,1.72-7.87,3.5-10a7.64,7.64,0,0,1,7.21-2.57,7.94,7.94,0,0,1,5.28,2.65,6.55,6.55,0,0,1,1.54,5.25,6.58,6.58,0,0,1-2.33,4.37,11.65,11.65,0,0,1-5.53,2.34A11.66,11.66,0,0,1,309,20.3a7.86,7.86,0,0,1,1.41,5.8,8.76,8.76,0,0,1-3,5.78,7.18,7.18,0,0,1-5.73,1.87,3.42,3.42,0,0,1-1.67-.59,1.15,1.15,0,0,1-.5-1.1,1,1,0,0,1,.38-.7,1.08,1.08,0,0,1,.8-.18,2.19,2.19,0,0,1,1.11.71,2.32,2.32,0,0,0,1.14.72c.72.09,1.45-.54,2.2-1.88a13.61,13.61,0,0,0,1.51-5.05,8.51,8.51,0,0,0-.94-5.72,8,8,0,0,0-4.72-3.17l.14-1.18a6.66,6.66,0,0,0,4.59-1.69,7.26,7.26,0,0,0,2.09-4.59,6,6,0,0,0-.87-4.21,4.34,4.34,0,0,0-3.24-2,4.24,4.24,0,0,0-4.18,1.65c-1,1.34-1.7,3.54-2.08,6.63l-2.15,17.46Zm46,1.44q1.09-4.07.69-5.46a2.87,2.87,0,0,0-2.26-1.9,6.72,6.72,0,0,0-2.61-.05,26.63,26.63,0,0,0-4,1l-2.86,10.69a3,3,0,0,0,0,2.28,3.25,3.25,0,0,0,2,1.14l-.24.91-8.74-2.35.24-.9a3.29,3.29,0,0,0,2.28,0,3,3,0,0,0,1.15-2l2.77-10.35a1.94,1.94,0,0,0-.1-1.62,5.94,5.94,0,0,0-2-1.5l.22-.81L334,19l.3.08-1,3.68a33.22,33.22,0,0,1,5.28-1.22,9.53,9.53,0,0,1,3.52.12,4.76,4.76,0,0,1,2.58,1.57,4.69,4.69,0,0,1,.94,2.84,44.74,44.74,0,0,1,5.86-1.14,9.44,9.44,0,0,1,3.37.15,4.23,4.23,0,0,1,3.23,2.55c.45,1.24.31,3.18-.39,5.8-.16.57-.28,1-.36,1.32s-.19.59-.27.85L356,39c0,.13-.08.29-.15.5-.29.88-.48,1.5-.57,1.85a4.88,4.88,0,0,0-.2,1.19,1.75,1.75,0,0,0,.14.81,2,2,0,0,0,.79.78,8.78,8.78,0,0,0,1.56.68l-.22.91-8.93-2.39.24-.91.08,0A2.11,2.11,0,0,0,350.9,42a12.4,12.4,0,0,0,1.87-4.28l.87-2.93c.08-.24.16-.48.23-.74s.19-.63.32-1.11c.58-2.2.74-3.77.46-4.71a2.86,2.86,0,0,0-2.24-1.9,6.44,6.44,0,0,0-2.52-.06,29.71,29.71,0,0,0-4.23,1L342.79,38a3.06,3.06,0,0,0,0,2.29,3.13,3.13,0,0,0,1.93,1.12l-.2.92-8.79-2.36L336,39a3.3,3.3,0,0,0,2.26,0,3.11,3.11,0,0,0,1.13-2l1.8-6.75Zm30.33,11.58a43.44,43.44,0,0,1-4.69.49l-1,.07a2.44,2.44,0,0,0-1.25.6,2.89,2.89,0,0,0-.81,1.24,2.51,2.51,0,0,0,.08,2,2.38,2.38,0,0,0,1.44,1.28,4.36,4.36,0,0,0,1.92.14,10.57,10.57,0,0,0,2.53-.68l1.77-5.12Zm-2.08,6.05A9.93,9.93,0,0,1,366.3,49a6.18,6.18,0,0,1-2.87-.26,4.39,4.39,0,0,1-2.58-2,3.67,3.67,0,0,1-.13-3.06,3.7,3.7,0,0,1,3.41-2.57c.22,0,1.21,0,2.95,0s3.35-.07,4.8-.2l1.1-3.2a6.59,6.59,0,0,0,.49-3.75,3,3,0,0,0-2.1-1.83,2.67,2.67,0,0,0-2.06,0,2.37,2.37,0,0,0-1.25,1.49c-.06.18-.11.31-.13.39a2.5,2.5,0,0,0-.07.26l-3.53.21.06-.19a5.18,5.18,0,0,1,3.4-3.06,7.49,7.49,0,0,1,5.23-.12,6,6,0,0,1,1.77,1,5.07,5.07,0,0,1,1.3,1.44,4.42,4.42,0,0,1,.73,2.13,9.81,9.81,0,0,1-.72,3.31l-.11.33-2.64,7.65a5.09,5.09,0,0,0-.42,2,1,1,0,0,0,.74.72,2.57,2.57,0,0,0,1,.12,7.4,7.4,0,0,0,1.37-.2v.72a16.77,16.77,0,0,1-3.1,1.11,3.83,3.83,0,0,1-2,0,2.17,2.17,0,0,1-1.38-1.26,3.52,3.52,0,0,1-.06-2.2Zm24,8a15.32,15.32,0,0,1-5,1.73,7.44,7.44,0,0,1-4.09-.59A7.81,7.81,0,0,1,380,52.27a9.43,9.43,0,0,1,.5-7,10.81,10.81,0,0,1,14.29-5.47A8.23,8.23,0,0,1,398,42.15a2.33,2.33,0,0,1,.54,2.47,1.36,1.36,0,0,1-.81.77,1.55,1.55,0,0,1-1.2-.1,3.75,3.75,0,0,1-1.45-1.85c-.09-.17-.15-.3-.2-.41l-.06-.09a4.62,4.62,0,0,0-2-2.35,5.17,5.17,0,0,0-4.84.5,9.87,9.87,0,0,0-4.07,4.73,9.12,9.12,0,0,0-.7,6.07,5.53,5.53,0,0,0,6.06,4.35,13,13,0,0,0,3.75-1.06l.39.79Zm19.15,3.57c.12-.21.24-.44.36-.68l.52-1a9.79,9.79,0,0,0,1.36-4.53A2.86,2.86,0,0,0,413,51a6.54,6.54,0,0,0-2.55-.54,27.28,27.28,0,0,0-4.16.2l-4.85,9.94a3.08,3.08,0,0,0-.44,2.24,3.35,3.35,0,0,0,1.69,1.49l-.37.86-8.15-4,.43-.83a3.38,3.38,0,0,0,2.23.42c.52-.17,1-.74,1.49-1.72l9.91-20.32a2.08,2.08,0,0,0,.23-1.63,6,6,0,0,0-1.65-1.84l.37-.76,6.24.72.31.15-6.93,14.22a32.19,32.19,0,0,1,5.41-.2,9.43,9.43,0,0,1,3.45.8,4.26,4.26,0,0,1,2.68,3.12q.27,2-1.51,5.61c-.27.54-.47,1-.62,1.24s-.29.55-.42.79l-1.71,3.11a3.81,3.81,0,0,1-.2.36q-.69,1.26-.93,1.77a2.65,2.65,0,0,0-.34,2.3,5.11,5.11,0,0,0,2.21,1.73l-.39.84-9.07-4.42.41-.84.19.09a2.48,2.48,0,0,0,2.55.06,10.89,10.89,0,0,0,2.66-3.75l1.43-2.68ZM425,69.2a11.77,11.77,0,0,0-1.8,3.9,1.7,1.7,0,0,0,.94,1.66,3,3,0,0,0,1.6.35,8.38,8.38,0,0,0,2.33-.39l.12,1A9.94,9.94,0,0,1,424.74,77a4.08,4.08,0,0,1-2.73-.48,3.86,3.86,0,0,1-2.1-3.5c0-1.49.73-3.44,2.17-5.84l4.65-7.74-2.24-1.35.56-1a6.48,6.48,0,0,0,3.85,0,9.23,9.23,0,0,0,3.69-2.28l.76.45-2.45,4.08,4.84,2.91-1.12,1.86-4.84-2.91L425,69.2Zm8.9,10.29A2.43,2.43,0,0,1,435,81a2.13,2.13,0,0,1-1.78,2.65,2.46,2.46,0,0,1-1.81-.42,2.34,2.34,0,0,1-1.05-1.5,2.07,2.07,0,0,1,.32-1.72,2.11,2.11,0,0,1,1.47-.94,2.36,2.36,0,0,1,1.78.42Zm1.7-3.49,10.72-19,3.83,2.58L436.45,76.54l-.81-.54Z"/><path class="cls-3" d="M388.49,363.35l7.82-2.68h5.58v.71a11,11,0,0,1,2.48-.3,8.56,8.56,0,0,1,5.2,1.62c.56-.26,1.12-.5,1.67-.71a12.75,12.75,0,0,1,4.44-.91,8.12,8.12,0,0,1,7,3.37c1.47,2.13,1.76,5,1.76,7.47,0,.43,0,.86,0,1.28s0,.6,0,.9l-.16,2.86,2.48.16.23,9.65H387.41v-1.19a13.54,13.54,0,0,1-6.64,1.65,12.87,12.87,0,0,1-9.32-3.75,14.83,14.83,0,0,1-2.69,2.13,11,11,0,0,1-5.77,1.62,11.25,11.25,0,0,1-7.67-2.88,6.64,6.64,0,0,1-.89,1,6.71,6.71,0,0,1-4.58,1.77,7,7,0,0,1-2.25-.37H331.7v-.87a11.26,11.26,0,0,1-5.45,1.41,11.11,11.11,0,0,1-4-.71,10.7,10.7,0,0,1-4.95,6.85,18,18,0,0,1-10.05,2.76,13.09,13.09,0,0,1-7-1.81,7.75,7.75,0,0,1-3.95-6.6,5.8,5.8,0,0,1,.09-1H275.33V386a11.22,11.22,0,0,1-5.25,1.31,10.94,10.94,0,0,1-8.56-4,12.53,12.53,0,0,1-2-3.25h-8l.56,1.59-2.17,2a18.58,18.58,0,0,1-3,2.34,7.73,7.73,0,0,1-4,1.22,6.59,6.59,0,0,1-3.11-.76,9.85,9.85,0,0,1-3.68.72,9.57,9.57,0,0,1-3-.46H198a7.64,7.64,0,0,1-2.62.46,7.91,7.91,0,0,1-6.42-3,6.72,6.72,0,0,1-5.56,2.91,6.71,6.71,0,0,1-4.57-1.76l-.78,1.85h-7.11l-1.75-4.09-1.74,4.09h-7.09L155,375.43,150,387.23h-7.11l-1.75-4.09-1.74,4.09h-7.09L127,375.43,122,387.23h-7.11l-1.75-4.09-1.74,4.09h-7.09L97.62,372.4c-.12-.25-.3-.65-.49-1L93.65,371v-9.36h94.6l-.05.95a1.42,1.42,0,0,0,.28-.23,3.52,3.52,0,0,0,.66-1.41l.91-3.38h8.26a5.86,5.86,0,0,1,2.28-4.22,6.94,6.94,0,0,1,8.4,0l0,0a5.86,5.86,0,0,1,2.24,4.61,5.72,5.72,0,0,1-.65,2.69H211v1.44l4.59-1.44h5.52v.57a10.34,10.34,0,0,1,2.48-.31,8.21,8.21,0,0,1,7,3.37l0,0c.06.09.13.19.19.3a12.27,12.27,0,0,1,1-.91,11,11,0,0,1,7.1-2.6,9.69,9.69,0,0,1,3.16.52,8.88,8.88,0,0,1,2.89,1.59,8.41,8.41,0,0,1,2.51,3.33,7.89,7.89,0,0,1,.47,1.68h11.7a12.58,12.58,0,0,1,2.07-3.18,11.64,11.64,0,0,1,8.95-4,9.93,9.93,0,0,1,6,2l7.63-2.4h5.53v.57a10.34,10.34,0,0,1,2.48-.31,8.19,8.19,0,0,1,7,3.37l0,0a6.26,6.26,0,0,1,.34.55,11,11,0,0,1,.85-.82,12.42,12.42,0,0,1,12-2.3,11.33,11.33,0,0,1,2.08,1l1-.14c.72-.11,1.45-.22,2.17-.3l5-.62v.08a12.47,12.47,0,0,1,4.13-.68,10.23,10.23,0,0,1,7.2,3v-2.47L331.7,361v-7.48l8.83-3.13h5.67V375.2a6.73,6.73,0,0,1,3.65-1.05,7.12,7.12,0,0,1,1.39.14A13.83,13.83,0,0,1,365.07,361a11.68,11.68,0,0,1,5.53,1.23,7.89,7.89,0,0,1,2,1.56,13.3,13.3,0,0,1,8.26-2.71,13,13,0,0,1,7.6,2.31Zm-189.61-2.84v1.1h.7a5.53,5.53,0,0,1-.7-1.1ZM186.7,375V372.6h-2.24v-.84c0,.06-.06.13-.09.18l-.27.7-.63,1.51a6.71,6.71,0,0,1,3.23.88Zm177.06-3.21a4.25,4.25,0,0,0-.48,2.16,3.54,3.54,0,0,0,.56,2.16,1.25,1.25,0,0,0,.23.23h.05l.17-.08a7,7,0,0,0,1.48-1.28l1.32-1.42a8.36,8.36,0,0,1-3.33-1.78Zm16.4-.74a3.3,3.3,0,0,0-.36,1.72,6.91,6.91,0,0,0,.88,3.78c.15.22.31.48.59.48h.13a4,4,0,0,0,.32-1.76,6.8,6.8,0,0,0-.87-3.75c-.19-.27-.31-.47-.64-.47Z"/><path class="cls-7" d="M107.29,382.67l-5.52-12.16a8.87,8.87,0,0,0-1.64-2.63,3.32,3.32,0,0,0-1.91-.9v-.8h8l0,.78a5.75,5.75,0,0,0-1.84.37.87.87,0,0,0-.52.82,2.88,2.88,0,0,0,.09.71,3.88,3.88,0,0,0,.29.74l4.41,9.66,3.89-9.48a4.34,4.34,0,0,0-1.3-2.19,4.39,4.39,0,0,0-2.42-.61l0-.8H117l0,.8a4.88,4.88,0,0,0-1.74.38.87.87,0,0,0-.42.82,2.06,2.06,0,0,0,.08.52,6.86,6.86,0,0,0,.22.72l4,9.62,3.84-9.05c.15-.37.26-.68.33-.92a2.28,2.28,0,0,0,.1-.64,1.08,1.08,0,0,0-.45-1,5.69,5.69,0,0,0-2.14-.46v-.8h6.74l0,.8c-1.45.33-2.54,1.43-3.29,3.29l-.24.61L119,382.67h-1.06l-4.76-11.15-4.76,11.15Zm28,0-5.52-12.16a8.87,8.87,0,0,0-1.64-2.63,3.32,3.32,0,0,0-1.91-.9v-.8h8l0,.78a5.89,5.89,0,0,0-1.84.37.87.87,0,0,0-.52.82,2.88,2.88,0,0,0,.09.71,3.88,3.88,0,0,0,.29.74l4.41,9.66,3.89-9.48a4.34,4.34,0,0,0-1.3-2.19,4.39,4.39,0,0,0-2.42-.61l0-.8H145l-.06.8a4.88,4.88,0,0,0-1.74.38.87.87,0,0,0-.42.82,2.06,2.06,0,0,0,.08.52,6.86,6.86,0,0,0,.22.72l4,9.62L150.9,370c.15-.37.26-.68.33-.92a2.28,2.28,0,0,0,.1-.64,1.08,1.08,0,0,0-.45-1,5.57,5.57,0,0,0-2.13-.46v-.8h6.73l0,.8c-1.45.33-2.54,1.43-3.29,3.29l-.24.61L147,382.67h-1.06l-4.76-11.15-4.76,11.15Zm28,0-5.52-12.16a8.87,8.87,0,0,0-1.64-2.63,3.32,3.32,0,0,0-1.91-.9v-.8h8l0,.78a5.89,5.89,0,0,0-1.84.37.87.87,0,0,0-.52.82,2.88,2.88,0,0,0,.09.71,3.88,3.88,0,0,0,.29.74l4.42,9.66,3.88-9.48a4.34,4.34,0,0,0-1.3-2.19,4.39,4.39,0,0,0-2.42-.61l0-.8H173l-.06.8a4.88,4.88,0,0,0-1.74.38.87.87,0,0,0-.42.82,2.06,2.06,0,0,0,.08.52,6.86,6.86,0,0,0,.22.72l4,9.62,3.84-9.05c.15-.37.26-.68.33-.92a2.28,2.28,0,0,0,.1-.64,1.1,1.1,0,0,0-.44-1,5.69,5.69,0,0,0-2.14-.46v-.8h6.73l0,.8c-1.45.33-2.54,1.43-3.29,3.29l-.24.61L175,382.67H173.9l-4.76-11.15-4.76,11.15Zm20.1-4a2.09,2.09,0,0,1,1.48.57,1.81,1.81,0,0,1,0,2.73,2.22,2.22,0,0,1-3,0,1.81,1.81,0,0,1,0-2.73,2.1,2.1,0,0,1,1.49-.57Zm11-2.79a10.32,10.32,0,0,0,.4,3.66,1.44,1.44,0,0,0,1.42.8,2.61,2.61,0,0,0,1.34-.44,7.57,7.57,0,0,0,1.53-1.32l.55.72a8.47,8.47,0,0,1-2,2.47,3.55,3.55,0,0,1-2.22.86,3.33,3.33,0,0,1-3.09-1.65,10.71,10.71,0,0,1-1-5.25V368H189v-1a5.47,5.47,0,0,0,2.83-1.69,7.77,7.77,0,0,0,1.7-3.3h.76v4.08h4.84V368h-4.84v7.88Zm10.47-19.45a2.07,2.07,0,0,1,1.37.44,1.31,1.31,0,0,1,0,2.13,2.4,2.4,0,0,1-2.73,0,1.28,1.28,0,0,1,0-2.12,2.1,2.1,0,0,1,1.37-.44Zm-1.28,13.2a1.7,1.7,0,0,0-.44-1.32,5.15,5.15,0,0,0-2-.8v-.72l5.06-1.6h.32V379a2.65,2.65,0,0,0,.49,1.89,2.85,2.85,0,0,0,1.89.51l0,.8H201.1v-.8a2.82,2.82,0,0,0,1.9-.52,2.58,2.58,0,0,0,.5-1.88v-9.33Zm21.32,4.18c0-.16,0-.39,0-.7s0-.54,0-.69a9.14,9.14,0,0,0-.67-4.23,2.44,2.44,0,0,0-2.3-1.14,5.36,5.36,0,0,0-2.13.54,21.9,21.9,0,0,0-3.17,1.74V379a2.6,2.6,0,0,0,.5,1.88,2.8,2.8,0,0,0,1.9.52v.8h-7.76v-.8a2.83,2.83,0,0,0,1.89-.52,2.59,2.59,0,0,0,.51-1.88v-9.33a1.73,1.73,0,0,0-.44-1.32,5.23,5.23,0,0,0-2-.8v-.72l5.1-1.6h.26v3.12a27.32,27.32,0,0,1,4.1-2.2,8.09,8.09,0,0,1,2.94-.66,3.72,3.72,0,0,1,3.28,1.4q1,1.41,1,4.92c0,.51,0,.89,0,1.16a6.84,6.84,0,0,1-.05.79l-.14,3.18c0,.12,0,.3,0,.52q-.06,1.17-.06,1.62a2.18,2.18,0,0,0,.62,1.86,4.19,4.19,0,0,0,2.3.46l0,.8h-8.64v-.8h.18a2.15,2.15,0,0,0,2-.91,9.29,9.29,0,0,0,.67-3.9l.07-2.74Zm16,1a35.11,35.11,0,0,1-3.66,1.71,7.67,7.67,0,0,0-.78.34,2.06,2.06,0,0,0-.85.83,2.39,2.39,0,0,0-.31,1.23,2.18,2.18,0,0,0,.62,1.58,2,2,0,0,0,1.52.63,3.67,3.67,0,0,0,1.59-.42,9.07,9.07,0,0,0,1.87-1.25v-4.65Zm0,5.49a8.43,8.43,0,0,1-2.26,1.77,5.18,5.18,0,0,1-2.39.59,3.76,3.76,0,0,1-2.65-.89,3.15,3.15,0,0,1-1-2.44,3.18,3.18,0,0,1,2-3c.17-.08,1-.36,2.38-.86s2.69-1,3.83-1.5v-2.9a5.76,5.76,0,0,0-.65-3.18,2.55,2.55,0,0,0-2.21-.9,2.37,2.37,0,0,0-1.68.56,2,2,0,0,0-.59,1.56v.36a1.7,1.7,0,0,0,0,.22l-2.8,1.15v-.16a4.44,4.44,0,0,1,1.9-3.43,6.44,6.44,0,0,1,4.2-1.56,5.47,5.47,0,0,1,1.71.28,4.56,4.56,0,0,1,1.45.8,3.88,3.88,0,0,1,1.18,1.52,8.49,8.49,0,0,1,.34,2.89v7.23a4.45,4.45,0,0,0,.22,1.76.87.87,0,0,0,.8.38,2.36,2.36,0,0,0,.85-.18,6,6,0,0,0,1.05-.55l.2.58a13.76,13.76,0,0,1-2.2,1.77,3.25,3.25,0,0,1-1.64.55,1.83,1.83,0,0,1-1.47-.63,3.1,3.1,0,0,1-.67-1.76Zm7.74-4.8V372.8h11.62v2.71ZM266,370.82h7.92a5.29,5.29,0,0,0-1.31-3.06,3.57,3.57,0,0,0-5.19,0,5.89,5.89,0,0,0-1.42,3.1Zm11,7.75a12.64,12.64,0,0,1-3.34,3.16,6.7,6.7,0,0,1-3.54,1,6.38,6.38,0,0,1-5.08-2.36,9,9,0,0,1-2-6,9.1,9.1,0,0,1,2.17-6.28,7.09,7.09,0,0,1,5.54-2.44c2.47,0,4.66,1.72,6.59,5.17l0,.07,0,.74H265.77c0,.29-.07.56-.09.83s0,.54,0,.81a8.19,8.19,0,0,0,1.64,5.34,5.26,5.26,0,0,0,4.29,2,5.51,5.51,0,0,0,2.49-.61,9.71,9.71,0,0,0,2.51-1.9l.37.44Zm16.53-4.72c0-.16,0-.39,0-.7s0-.54,0-.69a9.14,9.14,0,0,0-.67-4.23,2.45,2.45,0,0,0-2.31-1.14,5.36,5.36,0,0,0-2.12.54,22.45,22.45,0,0,0-3.18,1.74V379a2.59,2.59,0,0,0,.51,1.88,2.79,2.79,0,0,0,1.89.52v.8H279.9v-.8a2.78,2.78,0,0,0,1.88-.52,2.55,2.55,0,0,0,.52-1.88v-9.33a1.7,1.7,0,0,0-.45-1.32,5.16,5.16,0,0,0-2-.8v-.72l5.09-1.6h.26v3.12a27.81,27.81,0,0,1,4.1-2.2,8.14,8.14,0,0,1,2.95-.66,3.7,3.7,0,0,1,3.27,1.4c.64.94,1,2.58,1,4.92,0,.51,0,.89,0,1.16a6.84,6.84,0,0,1,0,.79l-.14,3.18c0,.12,0,.3,0,.52q-.06,1.17-.06,1.62a2.21,2.21,0,0,0,.61,1.86,4.25,4.25,0,0,0,2.31.46l0,.8h-8.65v-.8h.19a2.16,2.16,0,0,0,2-.91,9.29,9.29,0,0,0,.67-3.9l.07-2.74Zm12.8,9a14.49,14.49,0,0,0-2.39,2.26,2.56,2.56,0,0,0,.93,4.2,7.47,7.47,0,0,0,4.08,1.06,8.68,8.68,0,0,0,4.93-1.29,3.79,3.79,0,0,0,1.93-3.22,2.36,2.36,0,0,0-1.76-2.35q-1.75-.63-7.72-.66Zm2.25-6.26a3.39,3.39,0,0,0,2.73-1.21,4.77,4.77,0,0,0,1-3.25,6.81,6.81,0,0,0-1.08-4.06,3.68,3.68,0,0,0-5.69-.29,4.85,4.85,0,0,0-1,3.26,6.71,6.71,0,0,0,1.09,4.05,3.46,3.46,0,0,0,3,1.5Zm-3.28.26a6.93,6.93,0,0,1-2.82-2.11,4.81,4.81,0,0,1-.95-2.94,5.59,5.59,0,0,1,2.05-4.34,7.84,7.84,0,0,1,7.44-1.41,6.62,6.62,0,0,1,2.09,1.21l.46.08.42,0c.27,0,1-.09,2.26-.26.86-.14,1.54-.23,2.06-.29l0,2.35H318a13.8,13.8,0,0,1-1.59-.1c-.6-.06-1.31-.18-2.11-.32a4.79,4.79,0,0,1,.63,1.31,5.28,5.28,0,0,1,.2,1.47,5.07,5.07,0,0,1-1.93,4.14,7.9,7.9,0,0,1-5.15,1.57c-.38,0-.68,0-.89,0l-.59-.05a8.48,8.48,0,0,0-2,1,1.32,1.32,0,0,0-.62,1q0,1.17,4.93,1.43a4.14,4.14,0,0,0,.45,0q5.32.3,6.93,1.2a3.16,3.16,0,0,1,1.6,3c0,1.88-1,3.48-3.06,4.82a13.43,13.43,0,0,1-7.54,2,8.52,8.52,0,0,1-4.56-1.13,3.21,3.21,0,0,1-1.8-2.72q0-1.29,2.74-3.76c.64-.57,1.14-1,1.51-1.37a6.07,6.07,0,0,1-2.8-.89,2.19,2.19,0,0,1-.94-1.83,1.77,1.77,0,0,1,.64-1.35,14.84,14.84,0,0,1,3.2-1.74Zm16.87-6h7.92a5.34,5.34,0,0,0-1.3-3.06,3.58,3.58,0,0,0-5.2,0,5.89,5.89,0,0,0-1.42,3.1Zm11,7.75a12.49,12.49,0,0,1-3.34,3.16,6.65,6.65,0,0,1-3.54,1,6.38,6.38,0,0,1-5.08-2.36,10.1,10.1,0,0,1,.18-12.3,7.06,7.06,0,0,1,5.54-2.44q3.69,0,6.58,5.17l0,.07v.74H321.94c0,.29-.07.56-.09.83s0,.54,0,.81a8.19,8.19,0,0,0,1.64,5.34,5.26,5.26,0,0,0,4.29,2,5.51,5.51,0,0,0,2.49-.61,9.71,9.71,0,0,0,2.51-1.9l.37.44Zm5.53-18.93a1.72,1.72,0,0,0-.45-1.34,4.93,4.93,0,0,0-1.95-.8v-.73l5.06-1.79h.31v24a2.62,2.62,0,0,0,.51,1.9,2.66,2.66,0,0,0,1.84.5l0,.8h-7.77v-.8a2.84,2.84,0,0,0,1.9-.52,2.63,2.63,0,0,0,.5-1.88V359.64Zm11.19,19.07a2.08,2.08,0,0,1,1.48.57,1.81,1.81,0,0,1,0,2.73,2.08,2.08,0,0,1-1.48.57,2.1,2.1,0,0,1-1.49-.57,1.83,1.83,0,0,1,0-2.73,2.1,2.1,0,0,1,1.49-.57Zm19.83-.09a13.19,13.19,0,0,1-3.29,3.09,6.43,6.43,0,0,1-3.4,1,6.67,6.67,0,0,1-5.15-2.24,8,8,0,0,1-2-5.65,9.25,9.25,0,0,1,9.28-9.25,7.13,7.13,0,0,1,3.37.68,2,2,0,0,1,1.28,1.75,1.15,1.15,0,0,1-.36.88,1.38,1.38,0,0,1-1,.35,3.33,3.33,0,0,1-1.79-.95l-.29-.25-.08-.05a4,4,0,0,0-2.36-1.15,4.44,4.44,0,0,0-3.61,2.07,8.41,8.41,0,0,0-1.54,5.12,7.8,7.8,0,0,0,1.56,5,4.74,4.74,0,0,0,6.27,1.29,11.4,11.4,0,0,0,2.56-2.13l.58.48Zm16.61-3.32a10.89,10.89,0,0,0-1.7-6.36,5.13,5.13,0,0,0-4.38-2.42,4.43,4.43,0,0,0-3.61,1.7,7.2,7.2,0,0,0-1.36,4.58,11,11,0,0,0,1.69,6.38,5.09,5.09,0,0,0,4.34,2.45,4.44,4.44,0,0,0,3.67-1.7,7.19,7.19,0,0,0,1.35-4.63Zm3.2-1.09a8.09,8.09,0,0,1-2.5,6,8.58,8.58,0,0,1-6.22,2.42,8.29,8.29,0,0,1-6.14-2.47,8.38,8.38,0,0,1-2.46-6.18,8,8,0,0,1,2.5-6,8.62,8.62,0,0,1,6.22-2.41,8.42,8.42,0,0,1,8.6,8.61ZM405.56,373c0-2.41-.21-4-.64-4.68a2.46,2.46,0,0,0-2.3-1.06,5.57,5.57,0,0,0-2.17.54,22.32,22.32,0,0,0-3.12,1.7V379a2.56,2.56,0,0,0,.52,1.89,2.78,2.78,0,0,0,1.88.51v.8H392v-.8a2.83,2.83,0,0,0,1.89-.52,2.58,2.58,0,0,0,.51-1.88v-9.18a1.7,1.7,0,0,0-.44-1.32,5.15,5.15,0,0,0-2-.8V367l5.1-1.75h.26v3.27a28.86,28.86,0,0,1,4.1-2.18,8,8,0,0,1,2.94-.68,3.7,3.7,0,0,1,3.89,2.86,39.33,39.33,0,0,1,4.59-2.24,8.4,8.4,0,0,1,2.83-.62,3.62,3.62,0,0,1,3.24,1.4c.64.92,1,2.55,1,4.88,0,.51,0,.9,0,1.18s0,.52,0,.76l-.16,3.08c0,.12,0,.26,0,.45q-.06,1.19-.06,1.65a4.83,4.83,0,0,0,.09,1,1.8,1.8,0,0,0,.3.64,1.76,1.76,0,0,0,.83.46,6.34,6.34,0,0,0,1.44.22l0,.8h-7.92v-.8h.07a1.8,1.8,0,0,0,1.73-.86,10.67,10.67,0,0,0,.6-4l.07-2.62,0-.66c0-.23,0-.56,0-1a8.35,8.35,0,0,0-.66-4,2.46,2.46,0,0,0-2.28-1.08,5.58,5.58,0,0,0-2.09.51,26.06,26.06,0,0,0-3.28,1.77V379a2.62,2.62,0,0,0,.51,1.9,2.69,2.69,0,0,0,1.85.5l0,.8h-7.8l0-.8a2.82,2.82,0,0,0,1.87-.51,2.63,2.63,0,0,0,.49-1.89v-6Z"/><path class="cls-6" d="M308.55,65.55c0,1.37-1.36,2.54-4.11,3.49a30.9,30.9,0,0,1-10.05,1.43,84.84,84.84,0,0,1-14.86-1.64A27.34,27.34,0,0,0,271,76a78,78,0,0,0-8.33,13.54,110.15,110.15,0,0,1-6.54,11.68,27,27,0,0,1-5.69,5.65Q240.86,114,230.57,114a15.92,15.92,0,0,1-9-2.32,7,7,0,0,1-3.49-6,4.83,4.83,0,0,1,1.11-3.2,3.31,3.31,0,0,1,2.62-1.33c1.65,0,2.48.85,2.48,2.58a3.09,3.09,0,0,1-.76,2.09,2.37,2.37,0,0,1-1.87.88,1.57,1.57,0,0,1-1.8-1.75c0-.61-.09-.92-.3-.92-.42,0-.65.62-.65,1.87,0,2.06,1.07,3.8,3.19,5.21a13.73,13.73,0,0,0,7.82,2.14q10.2,0,18.31-9.22a106.74,106.74,0,0,0,9.83-14.2q9.82-16.07,20.52-21.14c-1.36-.22-3.42-.65-6.16-1.26a76.31,76.31,0,0,0-14.82-2.09c-.35,0-1.41.05-3.19.16a16,16,0,0,1,1.79,7.65q0,8.39-6.35,15.73t-13.6,7.35a6.41,6.41,0,0,1-4.9-2,7.17,7.17,0,0,1-1.88-5.16c0-2.9,1.1-6.09,3.3-9.62a34,34,0,0,1,8.52-9.21,31.57,31.57,0,0,1,11.49-5.51,10,10,0,0,0-8.57-4.07,19.1,19.1,0,0,0-9.47,2.72,28.54,28.54,0,0,0-8.39,7.41c-.35.49-.6.72-.72.72a.3.3,0,0,1-.31-.23c0-.43,1-1.68,3.12-3.77Q236,60,244.17,60q6.35,0,9.67,4.46a37.79,37.79,0,0,1,10.59-1.34,39,39,0,0,1,5.63.38q2.7.42,13.25,2.6a42.17,42.17,0,0,1,16.9-3.85q8.34,0,8.34,3.27Zm-.61.08c0-.73-.71-1.35-2.16-1.86a16.59,16.59,0,0,0-5.42-.76,38.22,38.22,0,0,0-15.8,3.43c.64.09,2.33.4,5.07.91a57.27,57.27,0,0,0,10.81,1.18,14.62,14.62,0,0,0,5.29-.86c1.47-.57,2.21-1.24,2.21-2Zm-53.18,5.63a11.73,11.73,0,0,0-1.4-5.64q-8.55,1.42-15.89,8.8T230.12,89a6.57,6.57,0,0,0,1.69,4.6A5.41,5.41,0,0,0,236,95.45c4.29,0,8.5-2.66,12.61-7.94s6.17-10.71,6.17-16.25Zm22.76,13.35a3.59,3.59,0,0,1-1.12,2.49,3.41,3.41,0,0,1-2.46,1.16,1.51,1.51,0,0,1-1.71-1.72,3.4,3.4,0,0,1,1.18-2.41A3.52,3.52,0,0,1,275.88,83a1.45,1.45,0,0,1,1.64,1.64Zm.53,15.74a6.43,6.43,0,0,1-.38.61L276,103.21c-4.77,6.62-8.4,9.94-10.93,9.94a3.93,3.93,0,0,1-3-1.28,4.46,4.46,0,0,1-1.2-3.18q0-2.2,2.62-6.69l5.94-10.09a8.88,8.88,0,0,0,1.86.26,21.41,21.41,0,0,0,2.9-.26L265.6,106.1c-1.24,2.06-1.86,3.64-1.86,4.76a1.56,1.56,0,0,0,1.79,1.72q3.38,0,11.91-12.08c.13-.25.26-.38.39-.38a.2.2,0,0,1,.22.23Zm30.58,0c0,.54-1.85,3-5.52,7.39q-4.55,5.4-7.13,5.41a3.66,3.66,0,0,1-2.88-1.34,4.8,4.8,0,0,1-1.16-3.26,7.41,7.41,0,0,1,.7-3.19,62.56,62.56,0,0,1,3.68-5.81c2.06-3,3.08-5,3.08-5.82,0-1-.54-1.56-1.64-1.56q-5.55,0-17.12,20.64c-1.25-.1-2-.16-2.25-.16a19.87,19.87,0,0,0-2.51.16l5.94-9.41q5.07-8.07,5.07-10.09c0-.76-.32-1.14-.95-1.14q-1.95,0-7.66,8.19c-.23.32-.41.51-.53.53s-.21-.08-.23-.23a.54.54,0,0,1,.15-.3l.72-1q5.82-7.81,7.85-7.81a2.73,2.73,0,0,1,2.21,1.18,4.46,4.46,0,0,1,.91,2.82c0,1.63-.95,3.88-2.86,6.77a67.19,67.19,0,0,1,6.91-8.48c1.61-1.52,3.11-2.29,4.47-2.29A3.52,3.52,0,0,1,300.7,93a5.15,5.15,0,0,1,1.15,3.4q0,2.55-3.51,7.81c-2.38,3.57-3.58,5.86-3.58,6.85a1.38,1.38,0,0,0,1.56,1.56q3.39,0,11.7-12.08c.13-.25.26-.38.39-.38a.2.2,0,0,1,.22.23Zm26.76,0q0,.81-5.56,7.39c-3,3.6-5.36,5.41-7.07,5.41a3.56,3.56,0,0,1-2.86-1.32,4.92,4.92,0,0,1-1.11-3.3,9.93,9.93,0,0,1,1.22-4.44,51.79,51.79,0,0,1-5.82,7.19,5.94,5.94,0,0,1-3.92,1.87,4.17,4.17,0,0,1-3.39-1.73,6.85,6.85,0,0,1-1.37-4.37q0-7.3,10.32-12.94c3-1.68,5.46-2.51,7.3-2.51,1.58,0,2.37.75,2.37,2.27a7.13,7.13,0,0,1-.3,1.72l1.94-3.69a8.79,8.79,0,0,0,2,.27,17.2,17.2,0,0,0,2.67-.27l-6.74,11.15c-2.34,3.91-3.51,6.5-3.51,7.73s.5,1.8,1.49,1.8,2.63-1.16,4.87-3.49a64.24,64.24,0,0,0,6.81-8.59c.16-.25.3-.38.43-.38a.2.2,0,0,1,.22.23ZM324.93,94c0-1.25-.57-1.87-1.72-1.87q-3.48,0-9.19,6.85t-5.69,11.09c0,1.65.74,2.47,2.21,2.47,1.75,0,4.78-2.92,9.1-8.73,3.52-4.76,5.29-8,5.29-9.81Z"/><path class="cls-6" d="M227.68,94.72c0,2.36-2.15,3.53-6.47,3.53q-5.11,0-24.28-4.75c-6,3.42-9,7.69-9,12.85,0,2.5.86,4.23,2.59,5.16,2.48-.2,4.37-.31,5.63-.31,3.64,0,5.48.44,5.48,1.32,0,.55-1,.84-2.9.84a34.17,34.17,0,0,1-8-1.06,49.9,49.9,0,0,0-13.59,4.53q-19.71,9.44-19.7,24.43,0,9.94,10.73,12.63a14.06,14.06,0,0,1-1.94-7.42q0-10.35,10.59-19.11T200,118.63q5.81,0,9.22,2.84a9.43,9.43,0,0,1,3.42,7.64q0,10.26-11.27,18.51a43.48,43.48,0,0,1-30.72,7.91c3.36,4.52,8.38,6.79,15,6.79a23.39,23.39,0,0,0,10.06-1.85l.63-.09a.4.4,0,0,1,.33.41c0,.49-1.3,1-3.9,1.57a35.75,35.75,0,0,1-7.12.8q-11,0-16.81-7.94c-5.35-1.2-9.56-3.22-12.59-6.09a13.3,13.3,0,0,1-4.55-10q0-7.62,6.33-14.29t16.85-10.08a73.54,73.54,0,0,1,14.58-3c-3.9-1.66-5.84-4.26-5.84-7.84q0-6.9,8.52-11.54Q180,89.41,172,89.4q-15.59,0-26.56,7.8t-11,18.84a13,13,0,0,0,2.89,8.48,8.71,8.71,0,0,0,7,3.53c1.85,0,2.78-.31,2.78-.9,0-.31-.32-.42-1-.31-1.86,0-2.79-.86-2.79-2.59a3.16,3.16,0,0,1,1.24-2.51,4.45,4.45,0,0,1,3-1.06c2.25,0,3.36,1.09,3.36,3.27A4.47,4.47,0,0,1,149,127.6a7.35,7.35,0,0,1-4.65,1.51A10.26,10.26,0,0,1,136,124.7a16.66,16.66,0,0,1-3.45-10.6q0-9.33,8.1-17.11c6.44-6.18,15.44-9.28,27.07-9.28q9.67,0,25.79,4a38.25,38.25,0,0,1,16.91-3.52,34.52,34.52,0,0,1,12.22,1.92c3.36,1.28,5.05,2.82,5.05,4.65Zm-1.11-.1c0-1.37-1.46-2.59-4.35-3.63a28.91,28.91,0,0,0-10-1.59,29.8,29.8,0,0,0-14.1,3.36c9.31,3,17.12,4.53,23.49,4.53q4.94,0,4.94-2.67Zm-14.85,34a7.76,7.76,0,0,0-3-6.25,11.51,11.51,0,0,0-7.58-2.48q-11.32,0-22.13,9.4t-10.8,19.19a11.4,11.4,0,0,0,1.74,5.79,31,31,0,0,0,5.63.58q12.43,0,24.3-8.61t11.84-17.62Zm46.77,8.52c0,.76-2.55,4.16-7.64,10.23-4.19,5-7.46,7.48-9.85,7.48a5.08,5.08,0,0,1-4-1.85,6.7,6.7,0,0,1-1.6-4.52,10,10,0,0,1,1-4.4,83,83,0,0,1,5.09-8q4.26-6.32,4.26-8c0-1.44-.76-2.16-2.27-2.16q-7.68,0-23.68,28.54c-1.73-.14-2.75-.22-3.11-.22a27.13,27.13,0,0,0-3.47.22l8.21-13q7-11.16,7-13.95c0-1.06-.43-1.58-1.31-1.58q-2.7,0-10.59,11.32c-.32.45-.57.7-.73.74s-.29-.11-.33-.33a.86.86,0,0,1,.22-.41l1-1.31q8.06-10.82,10.85-10.8a3.78,3.78,0,0,1,3.06,1.63,6.17,6.17,0,0,1,1.25,3.9c0,2.25-1.31,5.36-4,9.37q6.23-8.58,9.56-11.74c2.23-2.1,4.3-3.16,6.19-3.16a4.88,4.88,0,0,1,3.89,1.88,7.06,7.06,0,0,1,1.59,4.7c0,2.35-1.62,5.94-4.86,10.8s-4.94,8.1-4.94,9.47a1.91,1.91,0,0,0,2.16,2.16q4.69,0,16.17-16.7c.18-.34.36-.52.54-.52a.28.28,0,0,1,.31.3Zm36,0c0,.58-1.91,3-5.7,7.23A61.84,61.84,0,0,1,272.33,157l-2.63,4.8q-7.17,13.2-16.06,20.38-8.52,6.9-14.74,6.9a5.26,5.26,0,0,1-3.74-1.37,4.38,4.38,0,0,1-1.47-3.37q0-10.78,24.38-21.91c3.51-1.62,5.77-2.7,6.8-3.26l8.95-16.49a93.43,93.43,0,0,1-8.25,10,7.25,7.25,0,0,1-4.93,2.25,5.77,5.77,0,0,1-4.65-2.43,9.21,9.21,0,0,1-1.92-5.9q0-9.1,11.89-16.53c5.31-3.29,9.46-4.94,12.48-4.94,2.1,0,3.16,1.15,3.16,3.47a7,7,0,0,1-.47,2.26l2.95-5.32a10,10,0,0,0,2.48.38,31.17,31.17,0,0,0,4-.38q-.37.48-4.64,7.91l-13,22.54a67.29,67.29,0,0,0,11-7.53A72.7,72.7,0,0,0,293.23,138c.54-.72.88-1.06,1.06-1.06a.28.28,0,0,1,.22.3ZM281,128.57c0-1.78-.87-2.68-2.57-2.68q-4.75,0-12.57,9.45t-7.82,15.24c0,2.36,1,3.53,3.06,3.53s5.57-3.13,10.53-9.37c6.26-7.91,9.37-13.28,9.37-16.17Zm-16.7,31.48c-.67.4-2.64,1.41-5.95,3q-24,11.91-24,21.38a3.53,3.53,0,0,0,1.2,2.74,4.48,4.48,0,0,0,3.11,1.11q5.81,0,11.27-5.93c3.65-3.94,8.23-11,13.75-21.24,0,0,.22-.36.63-1.07Zm56.81-22.86a5.53,5.53,0,0,1-.95,1.39l-2.25,2.84Q307,154.89,299.23,154.9a8.14,8.14,0,0,1-6.18-2.66,9.33,9.33,0,0,1-2.5-6.65q0-9.5,13.21-16.7,7-3.79,11.32-3.79a4.9,4.9,0,0,1,3.24,1.13,3.47,3.47,0,0,1,1.35,2.77c0,2.51-1.66,4.67-4.95,6.45s-8.8,3.41-16.53,5c-2.39,3.63-3.58,6.63-3.58,9.06,0,3,1.64,4.53,4.89,4.53q8.34,0,20.38-16.27c.42-.55.78-.84,1.06-.84a.27.27,0,0,1,.2.3Zm-4.42-9.72c0-1.13-.61-1.69-1.83-1.69q-2.81,0-7.35,3.86a54.92,54.92,0,0,0-8.92,10,40.47,40.47,0,0,0,12.83-5.5q5.26-3.55,5.27-6.7ZM348.8,99.88q-22.11,36.8-25.77,43.28t-3.67,8.57c0,1.58.67,2.38,2,2.38q4.44,0,16.23-16.7c.18-.34.39-.52.64-.52a.27.27,0,0,1,.2.3,1.44,1.44,0,0,1-.52.85l-2.27,3.11q-9.94,13.74-14.7,13.75a4.63,4.63,0,0,1-3.7-1.71,6.5,6.5,0,0,1-1.46-4.35,12.52,12.52,0,0,1,1.35-5.61q1.35-2.7,9.13-15.65,9.56-15.85,16.07-27.48a10.56,10.56,0,0,0,2.79.41,10.16,10.16,0,0,0,3.68-.63Z"/><path class="cls-8" d="M309.23,65.1c0,1.36-1.37,2.53-4.11,3.48A31,31,0,0,1,295.06,70a84.64,84.64,0,0,1-14.85-1.64,27.52,27.52,0,0,0-8.57,7.22,77.25,77.25,0,0,0-8.33,13.54,110.75,110.75,0,0,1-6.54,11.67,26.26,26.26,0,0,1-5.69,5.65q-9.56,7.08-19.83,7.09a15.89,15.89,0,0,1-9-2.33,7,7,0,0,1-3.48-6,4.8,4.8,0,0,1,1.1-3.19,3.3,3.3,0,0,1,2.63-1.34c1.65,0,2.48.86,2.48,2.59a3.09,3.09,0,0,1-.77,2.09,2.38,2.38,0,0,1-1.87.87,1.56,1.56,0,0,1-1.79-1.74c0-.61-.09-.93-.3-.93-.43,0-.65.63-.65,1.88q0,3.07,3.18,5.21a13.81,13.81,0,0,0,7.83,2.13q10.19,0,18.31-9.22a106.88,106.88,0,0,0,9.82-14.2q9.83-16.06,20.53-21.13c-1.37-.22-3.42-.65-6.16-1.26a76.59,76.59,0,0,0-14.82-2.1c-.35,0-1.42.06-3.2.16a15.92,15.92,0,0,1,1.8,7.65q0,8.39-6.36,15.73T237,95.76a6.4,6.4,0,0,1-4.9-2,7.17,7.17,0,0,1-1.89-5.15c0-2.9,1.11-6.1,3.3-9.62A34,34,0,0,1,242,69.76a31.49,31.49,0,0,1,11.49-5.51,10.07,10.07,0,0,0-8.58-4.07,19,19,0,0,0-9.46,2.72,28.45,28.45,0,0,0-8.4,7.41c-.35.49-.6.73-.71.73a.3.3,0,0,1-.31-.24c0-.43,1-1.67,3.12-3.77q7.5-7.45,15.68-7.46,6.36,0,9.67,4.46a38.16,38.16,0,0,1,10.59-1.34,38.75,38.75,0,0,1,5.63.38c1.81.29,6.23,1.14,13.26,2.6a42.16,42.16,0,0,1,16.89-3.85q8.36,0,8.35,3.28Zm-.61.08c0-.73-.72-1.36-2.16-1.86a16.34,16.34,0,0,0-5.42-.77A38.27,38.27,0,0,0,285.23,66c.64.09,2.33.4,5.07.91a57.37,57.37,0,0,0,10.82,1.18,14.67,14.67,0,0,0,5.29-.85c1.46-.58,2.21-1.25,2.21-2ZM255.43,70.8a11.64,11.64,0,0,0-1.4-5.64q-8.53,1.43-15.88,8.8t-7.36,14.56a6.58,6.58,0,0,0,1.69,4.6A5.4,5.4,0,0,0,236.65,95q6.43,0,12.61-7.94t6.17-16.25Zm22.76,13.35a3.62,3.62,0,0,1-1.12,2.5,3.41,3.41,0,0,1-2.45,1.15,1.51,1.51,0,0,1-1.72-1.71,3.42,3.42,0,0,1,1.18-2.42,3.54,3.54,0,0,1,2.47-1.16,1.45,1.45,0,0,1,1.64,1.64Zm.53,15.74a3.27,3.27,0,0,1-.37.61l-1.64,2.25q-7.15,9.94-10.93,9.94a4,4,0,0,1-3-1.27,4.53,4.53,0,0,1-1.2-3.19c0-1.47.87-3.7,2.63-6.69l5.94-10.09a8.12,8.12,0,0,0,1.86.26,19.88,19.88,0,0,0,2.9-.26l-8.65,14.2c-1.23,2-1.86,3.64-1.86,4.75s.6,1.72,1.8,1.72q3.38,0,11.9-12.07c.13-.25.26-.38.39-.38a.2.2,0,0,1,.22.22Zm30.58,0c0,.55-1.84,3-5.52,7.39-3,3.6-5.39,5.41-7.12,5.41a3.66,3.66,0,0,1-2.89-1.34,4.83,4.83,0,0,1-1.15-3.26,7.22,7.22,0,0,1,.7-3.18A57.88,57.88,0,0,1,297,99.1q3.08-4.56,3.08-5.83c0-1-.55-1.56-1.64-1.56q-5.55,0-17.13,20.64c-1.25-.1-2-.15-2.25-.15a20.16,20.16,0,0,0-2.51.15l5.94-9.41q5.07-8.07,5.07-10.08c0-.77-.31-1.15-.95-1.15-1.3,0-3.84,2.73-7.65,8.19q-.36.5-.54.54c-.13,0-.2-.08-.23-.24a.62.62,0,0,1,.16-.3l.71-1q5.83-7.82,7.85-7.81a2.7,2.7,0,0,1,2.21,1.19,4.44,4.44,0,0,1,.91,2.82c0,1.62-.95,3.87-2.86,6.77a65.71,65.71,0,0,1,6.92-8.49c1.61-1.52,3.1-2.29,4.47-2.29a3.55,3.55,0,0,1,2.82,1.37,5.15,5.15,0,0,1,1.14,3.39q0,2.55-3.51,7.81c-2.38,3.57-3.57,5.86-3.57,6.85a1.38,1.38,0,0,0,1.56,1.56q3.39,0,11.69-12.07c.13-.25.26-.38.39-.38a.2.2,0,0,1,.22.22Zm26.76,0c0,.55-1.84,3-5.56,7.39q-4.49,5.4-7.07,5.41a3.58,3.58,0,0,1-2.86-1.31,4.93,4.93,0,0,1-1.1-3.3,9.81,9.81,0,0,1,1.22-4.45,52.55,52.55,0,0,1-5.82,7.19,5.92,5.92,0,0,1-3.93,1.87,4.17,4.17,0,0,1-3.39-1.73,6.82,6.82,0,0,1-1.36-4.36q0-7.32,10.31-12.95c3-1.68,5.46-2.51,7.31-2.51a2.05,2.05,0,0,1,2.36,2.28,6.6,6.6,0,0,1-.3,1.71l1.94-3.69a8.8,8.8,0,0,0,2,.27,17.09,17.09,0,0,0,2.66-.27l-6.73,11.15c-2.34,3.91-3.51,6.5-3.51,7.74s.49,1.79,1.48,1.79,2.64-1.16,4.87-3.48a64.73,64.73,0,0,0,6.81-8.59c.16-.25.3-.38.43-.38a.2.2,0,0,1,.22.22Zm-10.46-6.3c0-1.25-.57-1.88-1.71-1.88q-3.5,0-9.19,6.85T309,109.65c0,1.65.74,2.47,2.2,2.47q2.64,0,9.1-8.72c3.52-4.77,5.29-8.05,5.29-9.81Z"/><path class="cls-8" d="M228.36,94.27q0,3.53-6.47,3.52-5.13,0-24.28-4.74-9,5.11-9,12.85c0,2.49.86,4.22,2.58,5.15,2.48-.19,4.37-.3,5.63-.3,3.65,0,5.48.43,5.48,1.31,0,.56-1,.84-2.89.84a33.8,33.8,0,0,1-8-1.06,49.9,49.9,0,0,0-13.59,4.53q-19.69,9.43-19.69,24.43,0,9.94,10.73,12.63A14,14,0,0,1,167,146q0-10.35,10.58-19.1t23.19-8.74q5.79,0,9.22,2.84a9.43,9.43,0,0,1,3.41,7.64q0,10.28-11.27,18.51a43.45,43.45,0,0,1-30.71,7.91q5,6.8,15,6.79A23.44,23.44,0,0,0,196.44,160l.63-.09a.41.41,0,0,1,.32.41c0,.49-1.29,1-3.9,1.57a35.08,35.08,0,0,1-7.12.81q-11,0-16.8-8c-5.36-1.2-9.56-3.21-12.6-6.09a13.28,13.28,0,0,1-4.55-10q0-7.63,6.33-14.29t16.86-10.09a73.28,73.28,0,0,1,14.57-3q-5.85-2.47-5.84-7.84,0-6.9,8.52-11.54Q180.65,89,172.7,89q-15.58,0-26.57,7.8t-11,18.83a13,13,0,0,0,2.9,8.49,8.73,8.73,0,0,0,6.95,3.52c1.85,0,2.79-.31,2.79-.9,0-.31-.33-.41-1-.31-1.85,0-2.79-.86-2.79-2.58a3.2,3.2,0,0,1,1.24-2.52,4.48,4.48,0,0,1,3-1.06c2.24,0,3.36,1.1,3.36,3.27a4.5,4.5,0,0,1-1.92,3.65,7.3,7.3,0,0,1-4.66,1.51,10.27,10.27,0,0,1-8.34-4.4,16.67,16.67,0,0,1-3.45-10.61q0-9.33,8.11-17.11,9.65-9.27,27.06-9.27,9.69,0,25.79,3.95a38.44,38.44,0,0,1,16.92-3.52,34.75,34.75,0,0,1,12.22,1.92c3.36,1.28,5.05,2.82,5.05,4.66Zm-1.12-.11c0-1.37-1.45-2.59-4.35-3.63a28.86,28.86,0,0,0-10-1.58,29.69,29.69,0,0,0-14.11,3.36q14,4.53,23.49,4.53c3.29,0,4.94-.9,4.94-2.68ZM212.4,128.22a7.79,7.79,0,0,0-3-6.26,11.53,11.53,0,0,0-7.59-2.48q-11.33,0-22.12,9.4t-10.8,19.2a11.27,11.27,0,0,0,1.74,5.78,30.93,30.93,0,0,0,5.63.58q12.42,0,24.29-8.61t11.85-17.61Zm46.76,8.52q0,1.13-7.64,10.22c-4.18,5-7.45,7.48-9.84,7.48a5,5,0,0,1-4-1.85,6.65,6.65,0,0,1-1.6-4.51,10.06,10.06,0,0,1,1-4.41,82.61,82.61,0,0,1,5.08-8c2.84-4.21,4.26-6.88,4.26-8,0-1.44-.75-2.16-2.26-2.16q-7.68,0-23.69,28.54c-1.73-.14-2.75-.21-3.11-.21a27.42,27.42,0,0,0-3.47.21l8.22-13q7-11.16,7-14c0-1.06-.43-1.58-1.31-1.58q-2.68,0-10.58,11.32c-.33.45-.58.71-.74.74s-.29-.11-.32-.32a.8.8,0,0,1,.21-.42l1-1.31q8.06-10.8,10.86-10.8a3.74,3.74,0,0,1,3.05,1.64,6.12,6.12,0,0,1,1.26,3.9c0,2.24-1.31,5.35-3.95,9.36q6.23-8.58,9.56-11.74c2.23-2.1,4.29-3.16,6.18-3.16a4.87,4.87,0,0,1,3.9,1.89,7.08,7.08,0,0,1,1.58,4.69q0,3.53-4.85,10.8c-3.29,4.94-4.94,8.11-4.94,9.47a1.91,1.91,0,0,0,2.15,2.16q4.7,0,16.18-16.7c.18-.34.36-.52.54-.52a.27.27,0,0,1,.3.31Zm36,0q0,.85-5.7,7.22A61.64,61.64,0,0,1,273,156.54l-2.62,4.8q-7.17,13.22-16.07,20.38-8.52,6.9-14.74,6.9a5.3,5.3,0,0,1-3.74-1.36,4.43,4.43,0,0,1-1.47-3.38q0-10.78,24.39-21.91c3.5-1.62,5.77-2.7,6.79-3.25l8.95-16.5a92.36,92.36,0,0,1-8.25,10,7.23,7.23,0,0,1-4.92,2.25,5.77,5.77,0,0,1-4.66-2.43,9.22,9.22,0,0,1-1.92-5.89q0-9.12,11.9-16.54,8-4.94,12.47-4.94c2.11,0,3.17,1.15,3.17,3.47a7.29,7.29,0,0,1-.47,2.26l2.95-5.32a9.55,9.55,0,0,0,2.48.38,29.7,29.7,0,0,0,4-.38c-.26.33-1.8,3-4.64,7.91l-13,22.54a66.8,66.8,0,0,0,11-7.53,71.59,71.59,0,0,0,9.34-10.48c.54-.72.88-1.06,1.06-1.06a.28.28,0,0,1,.22.31Zm-13.48-8.63c0-1.78-.86-2.68-2.57-2.68q-4.74,0-12.56,9.46t-7.82,15.24q0,3.52,3.05,3.52t10.54-9.36q9.38-11.86,9.36-16.18ZM265,159.6c-.66.39-2.64,1.4-5.94,3Q235,174.51,235,184a3.53,3.53,0,0,0,1.21,2.73,4.44,4.44,0,0,0,3.11,1.11q5.79,0,11.27-5.93c3.64-3.93,8.23-11,13.74-21.24,0,0,.22-.36.63-1.06Zm56.82-22.86a6.05,6.05,0,0,1-1,1.38L318.62,141q-10.92,13.48-18.71,13.48a8.17,8.17,0,0,1-6.19-2.66,9.32,9.32,0,0,1-2.49-6.65q0-9.49,13.21-16.7,6.94-3.8,11.32-3.79a4.86,4.86,0,0,1,3.23,1.13,3.48,3.48,0,0,1,1.35,2.77q0,3.78-4.94,6.45c-3.31,1.76-8.81,3.42-16.54,5-2.39,3.63-3.57,6.64-3.57,9.06q0,4.53,4.89,4.53,8.32,0,20.38-16.26c.41-.56.77-.85,1.06-.85a.3.3,0,0,1,.2.31ZM317.39,127c0-1.13-.61-1.69-1.83-1.69-1.87,0-4.31,1.3-7.35,3.87a54.56,54.56,0,0,0-8.91,10,41,41,0,0,0,12.83-5.5c3.5-2.38,5.26-4.6,5.26-6.71Zm32.09-27.58q-22.11,36.79-25.78,43.27c-2.44,4.32-3.66,7.17-3.66,8.58,0,1.58.66,2.37,2,2.37q4.46,0,16.23-16.7c.18-.34.4-.52.65-.52a.3.3,0,0,1,.2.31,1.42,1.42,0,0,1-.53.84l-2.26,3.11q-9.94,13.76-14.7,13.75a4.63,4.63,0,0,1-3.7-1.71,6.45,6.45,0,0,1-1.46-4.35,12.45,12.45,0,0,1,1.35-5.6q1.35-2.7,9.13-15.66,9.54-15.86,16.07-27.48a10.5,10.5,0,0,0,2.78.41,10.25,10.25,0,0,0,3.69-.62Z"/></g></g></svg>