<svg width="48" height="48" viewBox="0 0 48 48" fill="none" xmlns="http://www.w3.org/2000/svg">
<g id="Facebook" clip-path="url(#clip0_30_8225)">
<path id="Vector" d="M45.35 0H2.65C1.186 0 0 1.186 0 2.65V45.352C0 46.814 1.186 48 2.65 48H25.64V29.412H19.384V22.168H25.64V16.826C25.64 10.626 29.426 7.25 34.958 7.25C37.608 7.25 39.884 7.448 40.548 7.536V14.016L36.712 14.018C33.704 14.018 33.122 15.448 33.122 17.544V22.17H40.296L39.362 29.414H33.122V48H45.354C46.814 48 48 46.814 48 45.35V2.65C48 1.186 46.814 0 45.35 0Z" fill="white"/>
</g>
<defs>
<clipPath id="clip0_30_8225">
<rect width="48" height="48" fill="white"/>
</clipPath>
</defs>
</svg>
