<svg width="218" height="33" viewBox="0 0 218 33" fill="none" xmlns="http://www.w3.org/2000/svg">
<g id="KONTAKT">
<path d="M8.78194 32.5615H0L0 0.504319L8.78194 0.504319L8.78194 14.4279C9.26859 13.4924 10.1608 12.1256 11.4585 10.3276L18.2275 0.504319L27.8058 0.504319L17.6081 14.8664L27.6288 32.5615L17.763 32.5615L11.3701 20.3043L8.78194 21.8392L8.78194 32.5615Z" fill="#3A3A3A"/>
<path d="M33.9775 4.23189C36.6762 1.41063 40.5916 0 45.7236 0C50.8704 0 54.771 1.39601 57.4255 4.18804C60.08 6.98007 61.4072 11.0804 61.4072 16.489C61.4072 21.8831 60.0726 25.9834 57.4034 28.79C54.7341 31.5967 50.8409 33 45.7236 33C40.6211 33 36.7131 31.5894 33.9996 28.7681C31.3009 25.9468 29.9515 21.8611 29.9515 16.511C29.9515 11.1462 31.2935 7.05316 33.9775 4.23189ZM45.7236 7.10432C41.3437 7.10432 39.1537 10.2179 39.1537 16.4452C39.1537 22.6724 41.3289 25.7861 45.6794 25.7861C47.8914 25.7861 49.5284 25.0332 50.5902 23.5276C51.6667 22.0219 52.205 19.6758 52.205 16.489C52.205 13.3023 51.6667 10.9415 50.5902 9.40665C49.5136 7.87176 47.8914 7.10432 45.7236 7.10432Z" fill="#3A3A3A"/>
<path d="M98.0392 32.5615H86.5806L74.7681 9.97675H74.5691C74.8492 13.4412 74.9893 16.1528 74.9893 18.1116V32.5615H67.2471V0.504319L78.6614 0.504319L90.4296 22.7821H90.5624C90.3559 19.4346 90.2527 16.8399 90.2527 14.998V0.504319L98.0392 0.504319V32.5615Z" fill="#3A3A3A"/>
<path d="M127.172 7.58671L119.297 7.58671V32.5615H110.56V7.58671L102.662 7.58671V0.504319L127.172 0.504319V7.58671Z" fill="#3A3A3A"/>
<path d="M161.194 32.5615L151.638 32.5615L150.023 26.5535L139.538 26.5535L137.901 32.5615H128.3L138.852 0.372758L150.51 0.372758L161.194 32.5615ZM148.231 19.4492L146.838 14.1867C145.879 10.8392 145.178 7.99601 144.736 5.65714C144.603 6.40266 144.338 7.63057 143.94 9.34087C143.586 10.9927 142.723 14.3621 141.352 19.4492L148.231 19.4492Z" fill="#3A3A3A"/>
<path d="M173.493 32.5615H164.711V0.504319L173.493 0.504319V14.4279C173.98 13.4924 174.872 12.1256 176.17 10.3276L182.939 0.504319L192.517 0.504319L182.319 14.8664L192.34 32.5615H182.474L176.081 20.3043L173.493 21.8392V32.5615Z" fill="#3A3A3A"/>
<path d="M218 7.58671L210.125 7.58671V32.5615H201.387V7.58671L193.49 7.58671V0.504319L218 0.504319V7.58671Z" fill="#3A3A3A"/>
</g>
</svg>
