<svg width="139" height="22" viewBox="0 0 139 22" fill="none" xmlns="http://www.w3.org/2000/svg">
<g id="PARTNER">
<path d="M7.72656 0.583984C10.4414 0.583984 12.4727 1.1748 13.8203 2.35645C15.1777 3.53809 15.8564 5.21777 15.8564 7.39551C15.8564 8.37207 15.7148 9.30957 15.4316 10.208C15.1582 11.1064 14.7041 11.9072 14.0693 12.6104C13.4443 13.3135 12.6094 13.8701 11.5645 14.2803C10.5293 14.6904 9.25 14.8955 7.72656 14.8955H6.10059V22H0.314453V0.583984H7.72656ZM7.59473 5.25684H6.10059V10.1787H7.24316C7.74121 10.1787 8.20508 10.0957 8.63477 9.92969C9.06445 9.75391 9.40625 9.47559 9.66016 9.09473C9.92383 8.7041 10.0557 8.18652 10.0557 7.54199C10.0557 6.86816 9.85547 6.32129 9.45508 5.90137C9.05469 5.47168 8.43457 5.25684 7.59473 5.25684Z" fill="#3A3A3A"/>
<path d="M32.4092 22L31.3545 17.9863H24.3965L23.3125 22H16.9551L23.9424 0.496094H31.6621L38.7373 22H32.4092ZM30.1533 13.2402L29.2305 9.72461C29.1328 9.34375 28.9912 8.80176 28.8057 8.09863C28.6201 7.38574 28.4346 6.65332 28.249 5.90137C28.0732 5.13965 27.9365 4.51465 27.8389 4.02637C27.751 4.51465 27.624 5.12012 27.458 5.84277C27.3018 6.55566 27.1357 7.26367 26.96 7.9668C26.7939 8.66992 26.6475 9.25586 26.5205 9.72461L25.5977 13.2402H30.1533Z" fill="#3A3A3A"/>
<path d="M48.083 0.583984C50.0264 0.583984 51.6426 0.823242 52.9316 1.30176C54.2207 1.77051 55.1875 2.47363 55.832 3.41113C56.4863 4.34863 56.8135 5.51562 56.8135 6.91211C56.8135 7.78125 56.667 8.57227 56.374 9.28516C56.0811 9.99805 55.6611 10.6377 55.1143 11.2041C54.5771 11.7607 53.9326 12.249 53.1807 12.6689L59.4209 22H52.8584L48.3174 14.207H46.8525V22H41.0664V0.583984H48.083ZM47.9951 4.96387H46.8525V9.85645H47.9365C48.8252 9.85645 49.5527 9.66113 50.1191 9.27051C50.6855 8.87988 50.9688 8.18164 50.9688 7.17578C50.9688 6.48242 50.7344 5.94043 50.2656 5.5498C49.7969 5.15918 49.04 4.96387 47.9951 4.96387Z" fill="#3A3A3A"/>
<path d="M70.8174 22H65.0312V5.31543H59.8018V0.583984H76.0322V5.31543H70.8174V22Z" fill="#3A3A3A"/>
<path d="M99.4844 22H91.8965L84.0742 6.91211H83.9424C83.9912 7.37109 84.0352 7.92285 84.0742 8.56738C84.1133 9.21191 84.1475 9.87109 84.1768 10.5449C84.2061 11.209 84.2207 11.8096 84.2207 12.3467V22H79.0938V0.583984H86.6523L94.4453 15.4668H94.5332C94.5039 14.998 94.4746 14.4561 94.4453 13.8408C94.416 13.2158 94.3867 12.5859 94.3574 11.9512C94.3379 11.3164 94.3281 10.7549 94.3281 10.2666V0.583984H99.4844V22Z" fill="#3A3A3A"/>
<path d="M116.828 22H104.113V0.583984H116.828V5.22754H109.899V8.59668H116.315V13.2402H109.899V17.2832H116.828V22Z" fill="#3A3A3A"/>
<path d="M127.595 0.583984C129.538 0.583984 131.154 0.823242 132.443 1.30176C133.732 1.77051 134.699 2.47363 135.344 3.41113C135.998 4.34863 136.325 5.51562 136.325 6.91211C136.325 7.78125 136.179 8.57227 135.886 9.28516C135.593 9.99805 135.173 10.6377 134.626 11.2041C134.089 11.7607 133.444 12.249 132.692 12.6689L138.933 22H132.37L127.829 14.207H126.364V22H120.578V0.583984H127.595ZM127.507 4.96387H126.364V9.85645H127.448C128.337 9.85645 129.064 9.66113 129.631 9.27051C130.197 8.87988 130.48 8.18164 130.48 7.17578C130.48 6.48242 130.246 5.94043 129.777 5.5498C129.309 5.15918 128.552 4.96387 127.507 4.96387Z" fill="#3A3A3A"/>
</g>
</svg>
